<svg xmlns="http://www.w3.org/2000/svg" xmlns:xlink="http://www.w3.org/1999/xlink" zoomAndPan="magnify" viewBox="481.216796875 49.901161193847656 375.0126953125 396.4777526855469" preserveAspectRatio="xMidYMid meet" version="1.0"><defs><clipPath id="1edb779fce"><path d="M 750.214844 61.097656 L 844.714844 61.097656 L 844.714844 147 L 750.214844 147 Z M 750.214844 61.097656 " clip-rule="nonzero"/></clipPath><clipPath id="7efb77e53b"><path d="M 50 0.679688 L 94.558594 0.679688 L 94.558594 72 L 50 72 Z M 50 0.679688 " clip-rule="nonzero"/></clipPath><clipPath id="9a3fb1fa72"><path d="M 0.214844 27 L 59 27 L 59 85.878906 L 0.214844 85.878906 Z M 0.214844 27 " clip-rule="nonzero"/></clipPath><clipPath id="3b3a055489"><rect x="0" width="95" y="0" height="86"/></clipPath><clipPath id="2f47ec77eb"><path d="M 493 114 L 665 114 L 665 434.535156 L 493 434.535156 Z M 493 114 " clip-rule="nonzero"/></clipPath><clipPath id="672e078642"><path d="M 649 185 L 750 185 L 750 434.535156 L 649 434.535156 Z M 649 185 " clip-rule="nonzero"/></clipPath></defs><g clip-path="url(#1edb779fce)"><g transform="matrix(1, 0, 0, 1, 750, 61)"><g clip-path="url(#3b3a055489)"><g clip-path="url(#7efb77e53b)"><path fill="#323232" d="M 80.320312 71.746094 C 82.777344 71.746094 84.964844 71.203125 86.753906 70.125 C 90.78125 67.691406 93.691406 61.867188 94.164062 55.285156 C 94.574219 49.589844 93.039062 44.730469 90.054688 42.285156 C 87.320312 40.039062 83.457031 39.824219 79.855469 40.320312 C 83.417969 37.019531 86.019531 33.199219 86.183594 29.085938 C 86.230469 27.875 86.035156 27.34375 85.296875 25.363281 C 84.679688 23.707031 83.652344 20.9375 82.019531 15.777344 C 80.855469 12.097656 80.070312 9.367188 79.496094 7.371094 C 78.195312 2.839844 77.886719 1.761719 76.480469 1.183594 C 73.863281 0.105469 69.738281 2.144531 65.164062 6.777344 C 60.726562 11.273438 56.585938 17.5625 54.089844 23.601562 C 53.015625 26.203125 51.390625 30.132812 50.5625 34.722656 C 49.566406 40.210938 49.957031 45.378906 51.714844 50.089844 C 53.402344 54.609375 56.425781 58.964844 60.464844 62.691406 C 64.207031 66.140625 68.667969 68.875 73.03125 70.394531 C 75.621094 71.296875 78.082031 71.746094 80.320312 71.746094 Z M 82.890625 40.804688 C 85.375 40.804688 87.777344 41.328125 89.605469 42.832031 C 92.410156 45.132812 93.851562 49.769531 93.457031 55.234375 C 93 61.59375 90.226562 67.199219 86.386719 69.519531 C 83.152344 71.472656 78.492188 71.546875 73.265625 69.726562 C 65.5625 67.046875 56.117188 59.855469 52.378906 49.84375 L 52.046875 49.964844 L 52.378906 49.84375 C 48.40625 39.203125 52.527344 29.230469 54.742188 23.875 C 57.207031 17.914062 61.292969 11.707031 65.667969 7.277344 C 69.964844 2.921875 73.90625 0.890625 76.210938 1.839844 C 77.265625 2.273438 77.539062 3.125 78.816406 7.570312 C 79.390625 9.566406 80.175781 12.300781 81.34375 15.992188 C 82.980469 21.167969 84.015625 23.949219 84.632812 25.609375 C 85.367188 27.578125 85.519531 27.988281 85.476562 29.058594 C 85.300781 33.5 82.011719 37.511719 78.550781 40.535156 C 75.429688 41.113281 72.648438 42.132812 71.1875 42.667969 C 66.957031 44.21875 63.441406 46.429688 61.722656 47.613281 C 59.375 49.222656 57.574219 50.816406 57.34375 51.484375 C 57.273438 51.695312 57.320312 51.84375 57.375 51.929688 C 57.542969 52.199219 57.910156 52.296875 59.207031 51.953125 C 62.6875 51.03125 72.148438 46.992188 78.882812 41.191406 C 80.191406 40.957031 81.554688 40.804688 82.890625 40.804688 Z M 77.40625 41.492188 C 76.929688 41.878906 76.457031 42.242188 75.992188 42.585938 C 71.554688 45.871094 66.824219 48.175781 64.398438 49.253906 C 61.105469 50.71875 58.976562 51.34375 58.175781 51.453125 C 59.1875 50.175781 64.636719 45.824219 71.429688 43.332031 C 72.664062 42.882812 74.867188 42.074219 77.40625 41.492188 Z M 77.40625 41.492188 " fill-opacity="1" fill-rule="nonzero"/></g><g clip-path="url(#9a3fb1fa72)"><path fill="#323232" d="M 53.273438 85.847656 C 54.269531 85.847656 55.117188 85.644531 55.785156 85.238281 C 57.773438 84.035156 58.566406 80.945312 58.140625 76.058594 C 57.78125 71.9375 56.613281 67.472656 55.640625 64.667969 C 53.054688 57.222656 48.878906 52.6875 45.195312 48.6875 C 41.113281 44.261719 32.148438 36.070312 17.9375 30.960938 C 11.199219 28.542969 2.8125 25.53125 0.785156 28.425781 C 0.332031 29.070312 0.21875 29.972656 0.449219 31.105469 C 0.972656 33.6875 3.257812 37.421875 6.71875 41.351562 C 10.386719 45.511719 14.890625 49.359375 19.40625 52.191406 C 23.902344 55.007812 29.394531 57.40625 34.972656 58.984375 C 34.917969 59.042969 34.863281 59.097656 34.8125 59.15625 C 33.429688 60.695312 32.457031 62.617188 32.136719 64.425781 C 31.078125 70.46875 36.957031 77.527344 43.257812 81.84375 C 45.679688 83.5 48.101562 84.714844 50.257812 85.351562 C 51.367188 85.683594 52.378906 85.847656 53.273438 85.847656 Z M 44.671875 49.167969 C 48.308594 53.117188 52.433594 57.59375 54.972656 64.898438 C 55.933594 67.664062 57.082031 72.0625 57.4375 76.117188 C 57.710938 79.28125 57.582031 83.324219 55.417969 84.632812 C 53.214844 85.964844 48.597656 84.640625 43.660156 81.257812 C 40.398438 79.027344 37.519531 76.238281 35.542969 73.40625 C 33.316406 70.207031 32.378906 67.144531 32.835938 64.546875 C 33.15625 62.722656 34.246094 60.699219 35.75 59.199219 C 35.792969 59.210938 35.835938 59.222656 35.878906 59.234375 C 40.484375 60.464844 44.707031 60.988281 46.140625 60.507812 C 46.460938 60.402344 46.664062 60.238281 46.746094 60.019531 C 46.855469 59.734375 46.75 59.378906 46.433594 58.96875 C 45.59375 57.875 42.800781 55.964844 39.859375 56.28125 C 38.378906 56.441406 36.878906 57.1875 35.546875 58.410156 C 31.75 57.359375 25.664062 55.277344 19.78125 51.59375 C 10.019531 45.46875 2.121094 35.808594 1.144531 30.96875 C 0.953125 30.027344 1.027344 29.308594 1.363281 28.832031 C 2.089844 27.792969 4.234375 27.667969 7.738281 28.464844 C 10.890625 29.183594 14.664062 30.539062 17.695312 31.628906 C 31.769531 36.683594 40.636719 44.789062 44.671875 49.167969 Z M 46.078125 59.765625 C 45.941406 59.871094 45.253906 60.074219 43.371094 59.921875 C 41.617188 59.785156 39.351562 59.382812 36.984375 58.789062 C 36.789062 58.742188 36.585938 58.6875 36.371094 58.632812 C 37.433594 57.742188 38.65625 57.121094 39.933594 56.984375 C 42.042969 56.757812 44.289062 57.863281 45.488281 58.984375 C 45.933594 59.402344 46.0625 59.671875 46.078125 59.765625 Z M 46.078125 59.785156 Z M 46.09375 59.75 Z M 46.09375 59.75 " fill-opacity="1" fill-rule="nonzero"/></g><path fill="#323232" d="M 63.53125 75.253906 C 63.5625 75.253906 63.597656 75.25 63.632812 75.246094 C 64.722656 75.09375 65.132812 72.21875 64.9375 70.304688 C 64.597656 67.007812 62.449219 64.058594 51.039062 54.070312 L 50.746094 53.816406 C 48.167969 51.558594 45.730469 49.425781 46.191406 48.179688 C 46.429688 47.539062 47.417969 47.039062 48.265625 47.132812 C 49.128906 47.226562 50.082031 47.929688 50.117188 48.90625 C 50.152344 49.816406 49.351562 50.429688 49.261719 50.496094 L 49.679688 51.066406 C 49.800781 50.976562 50.871094 50.15625 50.824219 48.878906 C 50.773438 47.527344 49.496094 46.554688 48.34375 46.429688 C 47.167969 46.300781 45.878906 46.988281 45.527344 47.933594 C 44.894531 49.636719 47.273438 51.71875 50.28125 54.347656 L 50.539062 54.574219 C 51.136719 55.433594 52.171875 56.917969 53.460938 58.761719 C 54.265625 59.917969 54.960938 60.910156 55.5625 61.769531 C 58.949219 66.613281 59.304688 67.117188 59.9375 68.335938 C 60.867188 70.121094 61.480469 71.671875 61.933594 72.804688 C 62.570312 74.40625 62.90625 75.253906 63.53125 75.253906 Z M 52.777344 56.550781 C 62.089844 64.832031 63.9375 67.5 64.234375 70.375 C 64.453125 72.523438 63.875 74.367188 63.546875 74.539062 C 63.332031 74.40625 62.953125 73.460938 62.589844 72.542969 C 62.132812 71.394531 61.511719 69.828125 60.566406 68.007812 C 59.910156 66.75 59.554688 66.238281 56.140625 61.363281 C 55.542969 60.503906 54.847656 59.511719 54.039062 58.355469 C 53.585938 57.707031 53.160156 57.097656 52.777344 56.550781 Z M 52.777344 56.550781 " fill-opacity="1" fill-rule="nonzero"/><path fill="#323232" d="M 46.839844 46.699219 L 47.546875 46.640625 C 47.421875 45.105469 47.457031 43.558594 47.65625 42.046875 C 47.898438 40.183594 48.671875 38.433594 49.421875 36.738281 C 50.097656 35.210938 50.796875 33.628906 51.128906 31.9375 C 51.703125 29.023438 51.261719 25.941406 49.886719 23.257812 C 49.542969 22.578125 46.839844 18.546875 44.960938 18.160156 C 44.558594 18.074219 44.195312 18.15625 43.910156 18.390625 C 43.578125 18.667969 43.582031 19.238281 43.757812 19.640625 C 43.988281 20.167969 44.578125 20.503906 45.296875 20.515625 L 45.3125 19.808594 C 44.878906 19.800781 44.523438 19.621094 44.40625 19.355469 C 44.328125 19.183594 44.339844 18.984375 44.367188 18.929688 C 44.445312 18.871094 44.570312 18.800781 44.816406 18.851562 C 46.253906 19.148438 48.789062 22.667969 49.257812 23.578125 C 50.558594 26.121094 50.976562 29.042969 50.433594 31.800781 C 50.117188 33.417969 49.433594 34.960938 48.773438 36.453125 C 48.003906 38.191406 47.210938 39.992188 46.953125 41.957031 C 46.75 43.519531 46.710938 45.113281 46.839844 46.699219 Z M 44.371094 18.925781 Z M 44.371094 18.925781 " fill-opacity="1" fill-rule="nonzero"/><path fill="#323232" d="M 45.703125 47.933594 L 46.324219 47.589844 C 44.859375 44.925781 43.046875 42.496094 40.945312 40.363281 C 38.355469 37.738281 35.289062 35.570312 31.835938 33.914062 L 31.703125 33.851562 C 30.984375 33.507812 29.082031 32.589844 27.25 31.960938 C 24.71875 31.089844 23.316406 31.082031 22.824219 31.933594 C 22.671875 32.203125 22.664062 32.640625 22.808594 32.972656 C 22.972656 33.347656 23.371094 33.675781 23.796875 33.792969 C 24.113281 33.875 24.40625 33.832031 24.621094 33.671875 C 24.96875 33.414062 25 32.953125 24.988281 32.703125 L 24.28125 32.742188 C 24.289062 32.933594 24.246094 33.070312 24.199219 33.105469 C 24.171875 33.125 24.097656 33.136719 23.980469 33.105469 C 23.761719 33.046875 23.535156 32.871094 23.457031 32.691406 C 23.386719 32.53125 23.414062 32.335938 23.441406 32.285156 C 23.5625 32.074219 24.519531 31.179688 31.394531 34.488281 L 31.527344 34.554688 C 34.910156 36.171875 37.910156 38.296875 40.441406 40.859375 C 42.5 42.945312 44.269531 45.324219 45.703125 47.933594 Z M 45.703125 47.933594 " fill-opacity="1" fill-rule="nonzero"/></g></g></g><g clip-path="url(#2f47ec77eb)"><path fill="#323232" d="M 643.394531 434.375 L 641.25 434.375 C 642.027344 424.179688 642.632812 416.882812 643.066406 412.484375 C 644.800781 394.789062 646.691406 377.132812 647.910156 359.410156 C 647.917969 359.257812 647.957031 359.117188 648.015625 358.984375 C 648.070312 358.855469 648.09375 358.742188 648.078125 358.632812 C 647.980469 357.953125 647.832031 357.945312 647.632812 358.613281 C 642.464844 376.09375 639.175781 394.175781 638.539062 412.386719 C 638.414062 415.957031 638.457031 419.863281 638.664062 424.105469 C 638.835938 427.726562 639.429688 431.152344 640.441406 434.375 L 638.480469 434.375 C 637.652344 431.761719 637.105469 429.078125 636.828125 426.339844 C 636.039062 418.46875 636.304688 410.113281 637.011719 402.113281 C 638.289062 387.6875 640.980469 373.558594 645.082031 359.71875 C 645.554688 358.125 646.609375 354.792969 648.25 349.722656 C 648.417969 349.210938 648.464844 348.695312 648.46875 348.164062 C 648.558594 342.613281 648.152344 335.796875 647.683594 329.578125 C 646.507812 314.085938 645.886719 298.839844 645.816406 283.84375 C 645.738281 268.214844 645.632812 256.109375 645.484375 247.519531 C 645.289062 236.121094 645.476562 225.25 646.503906 214.472656 C 647.050781 208.691406 647.496094 202.859375 647.828125 196.972656 C 647.839844 196.78125 647.796875 196.601562 647.703125 196.4375 C 646.988281 195.164062 646.15625 194.039062 645.207031 193.058594 C 642.222656 189.984375 638.941406 187.390625 635.722656 184.382812 C 635.554688 184.226562 635.296875 184.234375 635.144531 184.398438 C 635.117188 184.429688 635.089844 184.460938 635.074219 184.496094 C 634.960938 184.730469 634.875 184.96875 634.816406 185.214844 C 632.324219 195.636719 629.441406 206.078125 626.164062 216.546875 C 625.960938 217.195312 625.871094 217.871094 625.890625 218.574219 C 626.058594 224.671875 625.960938 230.746094 625.597656 236.800781 C 624.453125 255.839844 623.101562 273.46875 621.542969 289.699219 C 621.039062 294.949219 620.515625 299.925781 619.96875 304.621094 C 619.910156 305.117188 619.976562 305.132812 620.171875 304.671875 C 620.335938 304.265625 620.476562 303.816406 620.59375 303.324219 C 621.273438 300.40625 621.84375 297.660156 622.308594 295.097656 C 623.589844 288.042969 624.882812 280.871094 626.1875 273.578125 C 627.183594 267.996094 628.195312 263.21875 629.210938 259.246094 C 629.597656 257.726562 630.324219 254.203125 632.1875 253.9375 C 633.339844 253.769531 633.796875 254.609375 633.941406 255.570312 C 634.449219 258.980469 634.984375 262.300781 635.558594 265.527344 C 637.265625 275.207031 637.515625 285.027344 636.378906 294.898438 C 635.871094 299.324219 635.207031 303.667969 634.386719 307.925781 C 633.117188 314.546875 631.679688 321.761719 630.078125 329.566406 C 629.128906 334.179688 627.984375 338.949219 626.640625 343.875 C 624.851562 350.410156 623.140625 356.566406 621.503906 362.347656 C 619.730469 368.589844 618.269531 374.75 616.921875 381.203125 C 615.789062 386.636719 615.019531 391.832031 614.617188 396.792969 C 614.273438 401.046875 613.929688 405.3125 613.601562 409.574219 C 613.574219 409.894531 613.539062 410.21875 613.496094 410.546875 C 613.449219 410.882812 613.433594 411.210938 613.453125 411.519531 C 613.886719 419.132812 614.203125 426.75 614.390625 434.371094 L 612.84375 434.371094 C 612.832031 432.339844 612.773438 430.308594 612.660156 428.273438 C 612.640625 427.941406 612.550781 427.644531 612.386719 427.386719 C 609.242188 422.53125 606.320312 416.996094 603.613281 410.785156 C 598.992188 400.1875 598.75 388.335938 598.863281 376.605469 C 598.957031 366.460938 599.292969 357.132812 599.863281 348.621094 C 600.242188 342.925781 600.890625 337.132812 601.582031 331.574219 C 603.230469 318.390625 604.589844 306.203125 605.660156 295.011719 C 605.703125 294.515625 605.703125 294.027344 605.652344 293.539062 C 605.097656 288.4375 604.410156 283.546875 603.589844 278.871094 C 603.417969 277.882812 602.507812 277.089844 601.886719 276.320312 C 597.214844 270.476562 592.769531 264.765625 588.566406 259.195312 C 585.484375 255.117188 582.605469 250.972656 579.929688 246.753906 C 579.851562 246.628906 579.691406 246.589844 579.566406 246.671875 C 579.519531 246.699219 579.484375 246.738281 579.464844 246.789062 C 579.148438 247.519531 578.789062 248.25 578.605469 249.035156 C 578.269531 250.507812 577.929688 251.945312 577.59375 253.339844 C 576.941406 256.039062 575.632812 258.371094 573.671875 260.34375 C 573.589844 260.429688 573.589844 260.566406 573.675781 260.652344 C 573.703125 260.675781 573.734375 260.695312 573.769531 260.703125 C 574.945312 261.023438 576.257812 261.363281 577.199219 262.203125 C 580.832031 265.433594 576.609375 269.386719 578.910156 272.894531 C 579.898438 274.394531 581.4375 274.519531 581.453125 276.734375 C 581.464844 278.519531 581.328125 280.414062 581.035156 282.410156 C 580.820312 283.90625 580.171875 286.078125 578.789062 286.890625 C 578.097656 287.296875 577.183594 287.480469 576.5625 287.949219 C 576.347656 288.109375 576.21875 288.242188 576.164062 288.355469 C 574.453125 292.023438 571.074219 291.140625 567.867188 291.746094 C 567.671875 291.78125 567.511719 291.914062 567.4375 292.089844 C 566.863281 293.4375 565.332031 292.835938 564.1875 292.910156 C 564.015625 292.917969 563.957031 293.007812 564.011719 293.167969 C 565.59375 298.046875 566.773438 303.117188 567.546875 308.378906 C 569.15625 319.3125 569.601562 330.621094 568.480469 341.636719 C 567.882812 347.507812 567.128906 353.363281 567.046875 359.214844 C 566.921875 368.503906 567.539062 377.769531 568.910156 387.023438 C 569.269531 389.460938 569.664062 391.890625 570.078125 394.316406 C 572.378906 407.617188 574.421875 420.945312 575.730469 434.367188 L 574.554688 434.367188 C 572.597656 420.546875 570.519531 406.742188 568.316406 392.960938 C 566.917969 384.199219 566.039062 375.367188 565.570312 366.519531 C 565.550781 366.257812 565.484375 366.003906 565.359375 365.773438 C 563.628906 362.558594 561.695312 359.203125 559.5625 355.710938 C 554.917969 348.097656 550.933594 341.4375 547.511719 333.632812 C 545.789062 329.710938 544.160156 325.800781 542.617188 321.910156 C 540.925781 317.648438 539.921875 313.300781 539.617188 308.867188 C 539.257812 303.679688 538.871094 298.773438 538.453125 294.140625 C 538.433594 293.933594 538.25 293.777344 538.039062 293.796875 C 538.023438 293.796875 538.007812 293.800781 537.992188 293.804688 C 534.769531 294.484375 531.59375 294.679688 528.320312 294.179688 C 525.148438 293.695312 521.9375 292.683594 518.6875 291.136719 C 513.046875 288.460938 508.082031 285.296875 503.792969 281.65625 C 495.972656 275.011719 490.78125 264.410156 494.382812 254.121094 C 494.882812 252.691406 495.449219 251.242188 496.085938 249.78125 C 497.242188 247.109375 500.558594 244.53125 503.34375 243.8125 C 503.511719 243.769531 503.558594 243.667969 503.484375 243.515625 C 503.140625 242.8125 502.730469 242.0625 502.675781 241.28125 C 502.597656 240.285156 502.679688 239.117188 502.921875 237.773438 C 503.402344 235.144531 504.320312 233.070312 505.683594 231.546875 C 508.933594 227.910156 513.085938 226.644531 517.523438 225.046875 C 520.207031 224.078125 522.085938 222.320312 523.160156 219.773438 C 523.222656 219.632812 523.386719 219.566406 523.53125 219.628906 C 523.539062 219.632812 523.546875 219.636719 523.554688 219.640625 C 524.382812 220.097656 525.183594 220.4375 525.957031 220.667969 C 527.257812 221.054688 528.09375 221.351562 528.460938 221.558594 C 531.042969 223.042969 532.457031 225.957031 532.820312 228.867188 C 533.671875 235.726562 534.617188 242.515625 536.152344 249.15625 C 536.738281 251.703125 537.503906 254.242188 538.453125 256.777344 C 538.769531 257.617188 539.226562 258.234375 539.304688 259.167969 C 539.308594 259.214844 539.347656 259.246094 539.398438 259.242188 C 539.398438 259.242188 539.402344 259.242188 539.40625 259.242188 L 539.523438 259.21875 C 539.527344 259.21875 539.527344 259.21875 539.527344 259.214844 C 539.316406 258.496094 539.109375 257.75 538.914062 256.980469 C 538.75 256.328125 538.628906 255.667969 538.539062 255.015625 C 538.023438 251.0625 537.878906 246.261719 538.09375 240.605469 C 538.308594 234.929688 540.277344 229.941406 543.996094 225.648438 C 545.09375 224.378906 546.242188 223.410156 547.4375 222.742188 C 550.820312 220.847656 555.121094 219.726562 558.953125 220.054688 C 562.882812 220.390625 566.175781 222.566406 569.433594 224.644531 C 569.828125 224.894531 569.933594 224.804688 569.765625 224.371094 C 567.800781 219.488281 566.148438 214.308594 564.804688 208.839844 C 564.320312 206.863281 563.953125 204.808594 563.710938 202.675781 C 563.6875 202.496094 563.554688 202.351562 563.378906 202.3125 C 560.59375 201.726562 558.042969 202.292969 555.746094 203.878906 C 552.800781 205.910156 548.148438 207.699219 545.484375 204.203125 C 544.253906 202.59375 543.507812 200.632812 543.242188 198.332031 C 542.632812 193.101562 543.5 187.460938 544.765625 181.96875 C 544.84375 181.640625 544.777344 181.605469 544.570312 181.871094 C 543.941406 182.671875 543.414062 183.558594 542.761719 184.355469 C 537.816406 190.386719 527.589844 198.410156 519.039062 196.066406 C 515.644531 195.132812 513.234375 193.335938 510.386719 191.542969 C 509.285156 190.855469 508.011719 190.886719 506.835938 190.371094 C 502.808594 188.597656 501.808594 185.382812 501.953125 181.175781 C 502.058594 178.128906 502.464844 175.214844 503.171875 172.425781 C 504.457031 167.332031 507.582031 163.660156 513.046875 162.96875 C 513.445312 162.917969 513.484375 162.769531 513.164062 162.527344 C 511.363281 161.164062 509.898438 159.382812 508.769531 157.191406 C 506.539062 152.847656 504.679688 146.601562 505.558594 141.652344 C 506.214844 137.9375 509.402344 134.296875 512.441406 132.121094 C 514.539062 130.621094 517.1875 129.460938 520.398438 128.640625 C 524.75 127.519531 529.167969 128.328125 533.261719 129.828125 C 533.332031 129.855469 533.410156 129.820312 533.4375 129.746094 C 533.441406 129.730469 533.445312 129.710938 533.441406 129.691406 C 533.296875 127.585938 533.265625 125.488281 533.339844 123.398438 C 533.433594 120.933594 534.40625 119.003906 536.261719 117.613281 C 540.492188 114.4375 545.25 113.535156 550.53125 114.90625 C 554.105469 115.832031 557.890625 116.335938 561.414062 117.351562 C 567.347656 119.054688 570.917969 123.964844 572.050781 129.921875 C 573.035156 135.105469 572.410156 140.390625 570.179688 145.773438 C 570.152344 145.84375 570.175781 145.886719 570.242188 145.90625 C 570.28125 145.914062 570.320312 145.917969 570.359375 145.910156 C 570.417969 145.894531 570.464844 145.863281 570.496094 145.808594 C 571.515625 144.191406 573.140625 142.3125 575.367188 140.175781 C 579.171875 136.519531 584.609375 134.078125 589.65625 136.652344 C 591.988281 137.84375 593.980469 139.0625 595.632812 140.320312 C 596.90625 141.292969 597.472656 142.503906 597.328125 143.957031 C 597.074219 146.554688 596.933594 148.722656 598.550781 150.96875 C 599.523438 152.316406 601.019531 153.167969 602.242188 154.277344 C 604.488281 156.304688 604.285156 159.601562 603.953125 162.3125 C 603.722656 164.21875 603.207031 165.957031 602.410156 167.527344 C 600.914062 170.464844 597.90625 172.890625 594.972656 174.222656 C 593.046875 175.101562 590.9375 175.234375 588.648438 174.625 C 586.839844 174.140625 584.988281 173.589844 583.089844 172.960938 C 582.328125 172.707031 582.257812 172.839844 582.871094 173.359375 C 585.589844 175.65625 586.726562 178.957031 586.800781 182.417969 C 586.902344 187.226562 586.125 191.503906 584.480469 195.253906 C 583.070312 198.464844 580.636719 200.613281 577.179688 201.703125 C 577.050781 201.746094 577.007812 201.828125 577.035156 201.957031 C 580.074219 214.179688 584.21875 225.441406 588.964844 237.234375 C 593.90625 249.527344 598.78125 261.75 603.582031 273.90625 C 603.753906 274.335938 603.945312 274.753906 604.15625 275.152344 C 604.199219 275.238281 604.300781 275.269531 604.390625 275.226562 C 604.414062 275.214844 604.433594 275.195312 604.449219 275.171875 C 604.679688 274.847656 604.878906 274.492188 605.042969 274.09375 C 606.324219 271.03125 607.488281 267.917969 608.546875 264.753906 C 610.964844 257.503906 613.519531 250.1875 615.871094 242.867188 C 618.628906 234.308594 621.40625 225.816406 624.203125 217.390625 C 624.398438 216.800781 624.492188 216.203125 624.476562 215.597656 C 624.160156 200.65625 622.914062 185.234375 619.890625 171.09375 C 618.578125 164.945312 616.660156 158.898438 614.152344 152.945312 C 613.683594 151.832031 613.160156 150.777344 612.242188 149.914062 C 611.636719 149.34375 611.074219 148.769531 610.550781 148.183594 C 610.429688 148.050781 610.230469 148.011719 610.066406 148.085938 C 609.289062 148.457031 608.492188 148.414062 607.679688 147.957031 C 606.691406 147.40625 605.804688 146.785156 605.035156 146.101562 C 604.9375 146.015625 604.828125 145.988281 604.699219 146.011719 C 604.515625 146.050781 604.371094 146.148438 604.253906 146.300781 C 604.160156 146.429688 604.035156 146.519531 603.882812 146.574219 C 601.121094 147.507812 598.15625 146.191406 598.523438 142.875 C 598.589844 142.242188 598.855469 141.707031 599.320312 141.269531 C 600.066406 140.570312 601.816406 139.242188 602.867188 139.882812 C 604.289062 140.746094 605.457031 141.824219 606.730469 142.902344 C 608.597656 144.488281 610.382812 146.160156 612.089844 147.921875 C 612.191406 148.03125 612.277344 148.105469 612.347656 148.140625 C 612.464844 148.210938 612.613281 148.167969 612.679688 148.050781 C 612.714844 147.988281 612.722656 147.914062 612.699219 147.851562 C 611.042969 143.035156 609.574219 138.5625 608.289062 134.433594 C 607.824219 132.941406 607.417969 131.421875 607.066406 129.867188 C 606.875 129.019531 606.21875 129.28125 605.691406 128.90625 C 603.050781 127.023438 604.652344 122.316406 608.015625 123.027344 C 610.945312 123.644531 611.476562 128.5 608.210938 129.148438 C 608.121094 129.164062 608.0625 129.253906 608.082031 129.347656 C 608.082031 129.351562 608.085938 129.359375 608.085938 129.359375 C 609.5625 134.375 611.195312 139.503906 612.980469 144.757812 C 613.074219 145.03125 613.132812 145.023438 613.164062 144.738281 L 613.867188 138.039062 C 613.886719 137.871094 613.828125 137.742188 613.683594 137.644531 L 613.320312 137.40625 C 613.195312 137.320312 613.097656 137.210938 613.027344 137.070312 C 611.460938 133.855469 616.535156 132.335938 616.433594 136.285156 C 616.425781 136.472656 616.359375 136.632812 616.230469 136.773438 L 615.496094 137.535156 C 615.398438 137.640625 615.339844 137.765625 615.324219 137.910156 C 614.996094 140.683594 614.804688 143.226562 614.757812 145.546875 C 614.734375 146.535156 614.882812 146.5625 615.203125 145.628906 L 617.609375 138.648438 C 617.683594 138.441406 617.644531 138.257812 617.488281 138.101562 C 616.457031 137.019531 616.484375 134.964844 617.652344 133.949219 C 619.625 132.234375 623.167969 132.871094 623.375 135.886719 C 623.539062 138.308594 621.347656 139.429688 619.203125 138.921875 C 619.015625 138.878906 618.894531 138.945312 618.832031 139.132812 C 617.667969 142.886719 616.417969 146.464844 615.082031 149.871094 C 614.851562 150.464844 614.867188 151.089844 615.128906 151.753906 C 618.476562 160.207031 620.941406 169.105469 622.53125 178.449219 C 624.378906 189.332031 625.421875 200.332031 625.648438 211.449219 C 625.664062 211.980469 625.769531 211.996094 625.960938 211.503906 C 626.382812 210.417969 626.769531 209.335938 627.121094 208.261719 C 629.675781 200.394531 631.90625 192.613281 633.808594 184.914062 C 633.859375 184.710938 633.777344 184.59375 633.570312 184.574219 L 633.296875 184.550781 C 633.15625 184.53125 633.039062 184.476562 632.9375 184.378906 C 632.050781 183.488281 631.953125 182.414062 632.648438 181.15625 C 632.816406 180.855469 632.769531 180.589844 632.507812 180.363281 C 631.511719 179.496094 629.851562 178.324219 629.507812 177.035156 C 629.449219 176.820312 629.339844 176.789062 629.179688 176.945312 C 627.660156 178.402344 625.648438 177.371094 626.183594 175.375 C 626.941406 172.546875 630.699219 173.386719 629.976562 176.140625 C 629.945312 176.265625 629.980469 176.363281 630.085938 176.4375 C 631.453125 177.386719 632.675781 178.558594 633.742188 179.953125 C 633.785156 180.007812 633.863281 180.023438 633.921875 179.980469 C 633.949219 179.960938 633.964844 179.929688 633.972656 179.898438 L 636.285156 167.027344 C 636.324219 166.8125 636.246094 166.652344 636.050781 166.546875 C 633.460938 165.183594 636.449219 161.207031 638.730469 163.40625 C 639.855469 164.484375 639.15625 166.429688 637.691406 166.71875 C 637.492188 166.753906 637.339844 166.910156 637.304688 167.109375 L 634.96875 180.023438 C 634.933594 180.222656 635.066406 180.40625 635.261719 180.445312 C 635.300781 180.449219 635.34375 180.449219 635.386719 180.445312 C 635.550781 180.414062 635.695312 180.339844 635.824219 180.21875 C 636.210938 179.847656 636.421875 179.394531 636.460938 178.863281 C 636.582031 177.28125 636.976562 175.769531 638.988281 176 C 639.605469 176.066406 640.0625 176.300781 640.367188 176.691406 C 641.726562 178.460938 640.117188 180.007812 638.347656 180.152344 C 637.945312 180.183594 637.652344 180.042969 637.265625 180.007812 C 637.128906 179.996094 637 180.082031 636.957031 180.21875 L 636.289062 182.488281 C 636.171875 182.890625 636.277344 183.222656 636.597656 183.484375 C 637.398438 184.144531 638.167969 184.820312 638.902344 185.511719 C 641.027344 187.53125 643.128906 189.421875 645.195312 191.183594 C 645.472656 191.421875 645.53125 191.375 645.367188 191.050781 C 644.585938 189.476562 643.882812 187.75 643.273438 185.875 C 643.179688 185.589844 643.003906 185.386719 642.746094 185.265625 C 640.441406 184.167969 641.679688 181.019531 644.007812 181.507812 C 645.445312 181.808594 645.648438 183.519531 644.816406 184.511719 C 644.664062 184.699219 644.484375 184.792969 644.296875 184.933594 C 644.183594 185.015625 644.160156 185.117188 644.214844 185.242188 C 645.222656 187.378906 646.210938 189.683594 647.175781 192.148438 C 647.636719 193.320312 647.847656 193.28125 647.808594 192.015625 C 647.777344 191.101562 647.777344 190.292969 647.808594 189.585938 C 647.972656 185.25 648.226562 180.6875 648.566406 175.898438 C 648.585938 175.65625 648.441406 175.433594 648.214844 175.34375 C 645.578125 174.332031 645.90625 170.128906 648.363281 169.0625 C 650.53125 168.117188 653.058594 168.617188 653.308594 171.332031 C 653.539062 173.824219 652.464844 175.238281 650.078125 175.578125 C 649.9375 175.597656 649.863281 175.675781 649.859375 175.8125 C 649.605469 180.390625 649.386719 184.5 649.199219 188.140625 C 649.132812 189.359375 649.128906 190.5625 649.171875 191.742188 C 649.191406 192.109375 649.253906 192.117188 649.375 191.765625 L 652.605469 182.371094 C 652.65625 182.222656 652.628906 182.085938 652.523438 181.96875 C 651.902344 181.265625 651.707031 180.496094 651.941406 179.664062 C 652.324219 178.304688 653.292969 177.679688 654.84375 177.78125 C 655.8125 177.839844 656.550781 178.496094 656.722656 179.449219 C 656.753906 179.644531 656.820312 179.660156 656.917969 179.484375 C 657.699219 178.132812 658.898438 177.382812 660.507812 177.242188 C 665.121094 176.832031 664.984375 184.253906 661.441406 185.367188 C 660.160156 185.765625 658.796875 185.535156 657.847656 184.539062 C 657.71875 184.398438 657.597656 184.410156 657.492188 184.570312 L 649.273438 196.785156 C 649.152344 196.964844 649.089844 197.164062 649.085938 197.382812 C 649.003906 201.136719 648.910156 204.820312 648.648438 208.515625 C 648.167969 215.347656 647.5625 222.070312 647.421875 228.828125 C 647.28125 235.792969 647.296875 243.15625 647.472656 250.917969 C 647.675781 259.941406 647.796875 269.792969 647.828125 280.476562 C 647.878906 297.441406 648.585938 314.925781 649.960938 332.917969 C 650.613281 341.539062 650.625 350.566406 649.980469 360.003906 C 649.675781 364.519531 649.351562 368.675781 649.007812 372.484375 C 648.011719 383.492188 646.769531 396.410156 645.289062 411.230469 C 644.515625 418.925781 643.980469 426.664062 643.394531 434.375 Z M 555.910156 148.980469 C 556.085938 149.046875 556.152344 149.175781 556.117188 149.355469 C 555.597656 152.101562 554.972656 154.988281 554.242188 158.023438 C 554.152344 158.382812 554.277344 158.695312 554.617188 158.953125 C 554.78125 159.085938 555.019531 159.054688 555.152344 158.886719 C 555.160156 158.875 555.171875 158.859375 555.179688 158.84375 C 556.339844 156.832031 557.753906 154.777344 558.203125 152.4375 C 558.34375 151.714844 558.980469 150.992188 559.769531 151.34375 C 559.890625 151.398438 559.96875 151.488281 560.007812 151.613281 C 560.246094 152.457031 560.386719 154.023438 559.035156 153.960938 C 558.890625 153.953125 558.757812 154.03125 558.691406 154.15625 C 557.863281 155.707031 557.011719 157.222656 556.140625 158.710938 C 556.042969 158.878906 555.992188 159.058594 555.992188 159.25 C 555.992188 159.328125 556.054688 159.394531 556.132812 159.398438 C 556.171875 159.398438 556.207031 159.386719 556.230469 159.363281 C 557.941406 157.835938 559.636719 156.421875 561.320312 155.125 C 561.71875 154.820312 561.980469 154.421875 562.097656 153.929688 C 562.394531 152.746094 564.070312 151.726562 565.074219 152.71875 C 565.105469 152.75 565.164062 152.753906 565.195312 152.71875 C 565.199219 152.71875 565.203125 152.710938 565.203125 152.707031 C 566.164062 151.304688 567.0625 149.851562 567.902344 148.335938 C 572.242188 140.515625 573.097656 128.214844 566.195312 121.4375 C 562.65625 117.960938 557.78125 117.785156 553.15625 116.707031 C 551.402344 116.296875 549.699219 115.898438 548.035156 115.5 C 544.28125 114.609375 540.144531 116.003906 537.140625 118.5 C 535.742188 119.664062 534.964844 121.410156 534.816406 123.730469 C 534.671875 126.011719 534.648438 128.125 534.75 130.066406 C 534.761719 130.273438 534.890625 130.460938 535.085938 130.542969 C 543.339844 133.972656 546 142.609375 546.941406 150.949219 C 546.957031 151.085938 547.015625 151.199219 547.117188 151.285156 C 547.6875 151.769531 548.039062 152.28125 548.167969 152.832031 C 548.5 154.238281 548.839844 155.777344 549.1875 157.445312 C 549.253906 157.757812 549.351562 158.058594 549.484375 158.34375 C 549.539062 158.460938 549.652344 158.53125 549.78125 158.535156 C 550.226562 158.539062 550.617188 158.265625 550.613281 157.789062 C 550.59375 155.910156 550.574219 154.054688 550.5625 152.214844 C 550.5625 152.085938 550.519531 151.96875 550.433594 151.867188 C 550.136719 151.511719 549.820312 151.5 549.703125 150.976562 C 549.511719 150.113281 549.789062 149.578125 550.53125 149.367188 C 551.265625 149.160156 551.765625 149.382812 552.03125 150.035156 C 552.339844 150.800781 552.121094 151.429688 551.378906 151.933594 C 551.265625 152.011719 551.207031 152.132812 551.21875 152.265625 C 551.359375 154.046875 551.375 155.953125 551.273438 157.984375 C 551.265625 158.140625 551.339844 158.222656 551.5 158.234375 L 553.222656 158.320312 C 553.5 158.335938 553.746094 158.144531 553.804688 157.875 L 555.632812 149.050781 C 555.648438 148.976562 555.722656 148.925781 555.796875 148.941406 C 555.804688 148.945312 555.8125 148.945312 555.820312 148.949219 Z M 513.070312 134.382812 C 512.78125 133.597656 512.820312 133.582031 513.171875 134.339844 C 517.167969 142.894531 524.730469 149.105469 532.929688 153.695312 C 536.605469 155.757812 540.503906 157.878906 544.625 160.066406 C 545.261719 160.402344 545.84375 160.824219 546.441406 161.222656 C 546.59375 161.320312 546.671875 161.28125 546.679688 161.101562 C 546.734375 160.21875 546.472656 159.441406 545.886719 158.765625 C 544.710938 157.425781 543.339844 156.0625 541.769531 154.679688 C 541.675781 154.601562 541.5625 154.566406 541.4375 154.589844 C 540.472656 154.753906 539.957031 154.335938 539.886719 153.34375 C 539.839844 152.652344 539.894531 151.046875 540.710938 150.777344 C 541.027344 150.671875 541.371094 150.832031 541.492188 151.144531 C 541.8125 151.964844 542.105469 152.785156 542.378906 153.609375 C 542.972656 155.394531 544.523438 156.640625 545.988281 157.761719 C 546.046875 157.804688 546.121094 157.792969 546.164062 157.738281 C 546.183594 157.710938 546.191406 157.679688 546.1875 157.648438 C 545.75 154.957031 545.378906 152.253906 545.058594 149.542969 C 544.304688 143.101562 541.683594 135.886719 535.960938 132.613281 C 533.707031 131.320312 530.921875 130.257812 527.597656 129.417969 C 525.742188 128.953125 524.105469 128.816406 522.695312 129.015625 C 519.816406 129.425781 517.085938 130.425781 514.496094 132.019531 C 511.539062 133.839844 509.351562 136.40625 507.929688 139.714844 C 507.183594 141.445312 507.042969 143.261719 507.167969 145.121094 C 507.519531 150.027344 509.140625 155.925781 512.441406 159.472656 C 514.722656 161.929688 517.753906 163.335938 521.519531 163.695312 C 522.890625 163.820312 524.539062 163.558594 525.871094 163.226562 C 529.253906 162.378906 532.496094 162.070312 535.582031 162.300781 C 536.519531 162.371094 538.273438 162.621094 540.839844 163.054688 C 541.378906 163.144531 541.933594 163.058594 542.429688 163.238281 C 543.246094 163.539062 544.121094 163.613281 545 163.796875 C 545.570312 163.914062 545.648438 163.765625 545.238281 163.351562 C 545.003906 163.117188 544.753906 162.90625 544.480469 162.722656 C 542.121094 161.144531 539.671875 160.128906 537.136719 159.679688 C 536.265625 159.53125 535.222656 159.085938 535.789062 157.933594 C 535.921875 157.671875 536.242188 157.5625 536.507812 157.691406 C 536.558594 157.71875 536.605469 157.753906 536.648438 157.792969 C 537.160156 158.296875 537.761719 158.675781 538.441406 158.925781 C 541.113281 159.902344 543.476562 160.90625 545.53125 161.941406 C 546.636719 162.5 546.707031 162.386719 545.742188 161.613281 C 545.375 161.316406 544.902344 161.074219 544.324219 160.882812 C 543.964844 160.765625 543.640625 160.59375 543.355469 160.378906 C 542.75 159.925781 542.066406 159.742188 541.417969 159.308594 C 541.117188 159.105469 540.792969 158.910156 540.449219 158.71875 C 532.050781 154.011719 522.988281 149.09375 517.109375 141.308594 C 515.160156 138.714844 513.8125 136.410156 513.070312 134.382812 Z M 586.324219 160.375 C 589.910156 158.875 593.394531 157.164062 596.773438 155.246094 C 597.53125 154.8125 598.085938 154.207031 598.429688 153.429688 C 598.503906 153.253906 598.480469 153.058594 598.367188 152.90625 C 597.878906 152.289062 597.433594 151.667969 597.03125 151.035156 C 596.0625 149.515625 596.125 147.070312 596.25 145.140625 C 596.367188 143.347656 595.730469 142.003906 594.230469 140.9375 C 592.308594 139.578125 590.359375 138.417969 588.382812 137.460938 C 586.796875 136.695312 585.3125 136.425781 583.925781 136.65625 C 579.976562 137.320312 576.351562 140.371094 573.710938 143.488281 C 572.050781 145.453125 570.242188 147.730469 568.296875 150.328125 C 567.507812 151.367188 566.03125 152.863281 565.242188 154.507812 C 565.003906 155.007812 563.800781 155.433594 563.324219 156.039062 C 561.761719 158.003906 560.371094 159.460938 558.105469 161.023438 C 557.785156 161.246094 557.65625 161.53125 557.726562 161.890625 C 557.769531 162.121094 557.988281 162.277344 558.214844 162.242188 C 559.203125 162.097656 560.230469 161.910156 561.300781 161.675781 C 562.078125 161.507812 562.75 161.570312 562.996094 160.640625 C 563.027344 160.511719 563.089844 160.402344 563.179688 160.308594 C 563.957031 159.488281 565.058594 159.289062 566.476562 159.714844 C 566.761719 159.800781 566.941406 160.070312 566.921875 160.363281 C 566.875 161 565.777344 161.503906 565.28125 161.839844 C 564.691406 162.242188 564.027344 162.109375 563.417969 161.863281 C 563.292969 161.816406 563.164062 161.808594 563.039062 161.84375 L 558.414062 163.128906 C 558.289062 163.167969 558.222656 163.25 558.21875 163.378906 C 558.171875 164.261719 558.019531 165.105469 557.761719 165.910156 C 557.738281 165.984375 557.78125 166.066406 557.855469 166.089844 C 557.871094 166.097656 557.890625 166.097656 557.90625 166.097656 L 565.070312 165.597656 C 565.210938 165.589844 565.3125 165.519531 565.371094 165.390625 L 565.566406 164.953125 C 565.625 164.828125 565.738281 164.742188 565.875 164.722656 C 566.832031 164.574219 567.746094 164.585938 568.617188 164.761719 C 569.023438 164.839844 569.285156 165.234375 569.207031 165.644531 C 569.191406 165.734375 569.15625 165.820312 569.105469 165.898438 C 568.472656 166.921875 567.539062 167.5 566.316406 167.636719 C 566.117188 167.660156 565.929688 167.574219 565.808594 167.421875 C 565.664062 167.234375 565.566406 167.023438 565.511719 166.785156 C 565.457031 166.535156 565.234375 166.363281 564.984375 166.375 L 557.394531 166.742188 C 557.152344 166.753906 557.058594 166.878906 557.121094 167.113281 C 557.171875 167.324219 557.308594 167.511719 557.539062 167.671875 C 562.199219 170.988281 567.144531 173.113281 572.902344 172.28125 C 576.949219 171.699219 580.4375 171.089844 584.492188 172.191406 C 587.996094 173.140625 591.332031 174.6875 594.851562 172.621094 C 596.085938 171.898438 597.296875 171.050781 598.484375 170.078125 C 602.308594 166.949219 603.683594 162.855469 602.601562 157.796875 C 602.226562 156.050781 600.742188 154.800781 599.257812 153.847656 C 599.164062 153.789062 599.039062 153.8125 598.980469 153.90625 C 598.976562 153.910156 598.972656 153.914062 598.972656 153.917969 C 598.503906 154.824219 597.792969 155.347656 596.890625 155.789062 C 593.457031 157.453125 589.960938 159.03125 586.402344 160.519531 C 586.382812 160.527344 586.363281 160.519531 586.355469 160.496094 L 586.3125 160.398438 C 586.3125 160.382812 586.3125 160.378906 586.324219 160.375 Z M 609.179688 146.804688 L 605.769531 143.808594 C 605.753906 143.796875 605.730469 143.796875 605.714844 143.8125 L 605.699219 143.828125 C 605.433594 144.136719 605.964844 145.046875 606.894531 145.859375 L 607 145.957031 C 607.925781 146.773438 608.898438 147.183594 609.167969 146.878906 C 609.167969 146.878906 609.167969 146.878906 609.167969 146.875 L 609.179688 146.859375 C 609.199219 146.839844 609.195312 146.820312 609.179688 146.804688 Z M 548.289062 158.984375 L 548.878906 158.863281 C 548.976562 158.84375 549.039062 158.742188 549.019531 158.644531 L 548.621094 156.746094 C 548.210938 154.796875 547.703125 153.25 547.480469 153.289062 L 547.320312 153.320312 C 547.097656 153.347656 547.253906 154.957031 547.664062 156.914062 C 547.664062 156.925781 547.664062 156.9375 547.667969 156.945312 L 548.070312 158.84375 C 548.09375 158.945312 548.1875 159.003906 548.289062 158.984375 Z M 533.890625 180.820312 C 539.820312 177.515625 544.550781 173.542969 547.066406 167.484375 C 547.425781 166.625 547.1875 166.402344 546.351562 166.8125 C 546.230469 166.871094 546.003906 167.089844 545.671875 167.472656 C 543.644531 169.773438 541.554688 171.675781 539.050781 173.4375 C 530.328125 179.5625 519.828125 184.324219 509.769531 187.859375 C 509.726562 187.875 509.699219 187.863281 509.6875 187.820312 C 509.671875 187.789062 509.683594 187.769531 509.710938 187.757812 C 520.726562 183.570312 531.777344 178.496094 540.972656 171.113281 C 542.589844 169.816406 544.085938 168.261719 545.464844 166.453125 C 545.542969 166.355469 545.519531 166.214844 545.421875 166.140625 C 545.378906 166.109375 545.332031 166.09375 545.277344 166.09375 C 543.21875 166.167969 541.226562 166.355469 539.308594 166.660156 C 539.167969 166.679688 539.058594 166.746094 538.976562 166.863281 C 538.078125 168.121094 537.023438 168.296875 535.808594 167.386719 C 535.457031 167.125 535.355469 166.644531 535.5625 166.261719 C 536.183594 165.136719 537.820312 164.320312 538.59375 165.898438 C 538.664062 166.035156 538.8125 166.101562 538.957031 166.0625 C 540.527344 165.621094 542.148438 165.285156 543.832031 165.054688 C 544.191406 165.007812 544.546875 164.914062 544.894531 164.78125 C 544.914062 164.773438 544.925781 164.757812 544.929688 164.738281 C 544.929688 164.722656 544.925781 164.710938 544.921875 164.699219 C 544.90625 164.660156 544.875 164.640625 544.835938 164.640625 C 544.265625 164.636719 543.695312 164.574219 543.125 164.449219 C 538.699219 163.488281 534.113281 162.683594 529.613281 163.660156 C 528.054688 163.996094 526.46875 164.359375 524.859375 164.734375 C 521.273438 165.578125 518.085938 164.773438 514.730469 163.429688 C 514.46875 163.328125 514.203125 163.3125 513.933594 163.386719 C 509.707031 164.496094 506.6875 166.066406 505.144531 170.382812 C 503.816406 174.101562 503.246094 178.175781 503.4375 182.597656 C 503.519531 184.53125 504.289062 186.214844 505.746094 187.644531 C 506.222656 188.113281 506.84375 188.359375 507.378906 188.742188 C 507.730469 188.992188 508.105469 189.144531 508.515625 189.210938 C 509.917969 189.425781 511.242188 189.984375 512.480469 190.878906 C 516.234375 193.601562 520.292969 196.246094 525.210938 195.007812 C 529.175781 194.011719 532.746094 191.714844 536.019531 189.21875 C 539.84375 186.308594 542.925781 182.695312 545.269531 178.386719 C 546.898438 175.394531 547.71875 172.140625 548.527344 168.90625 C 548.617188 168.542969 548.640625 168.164062 548.597656 167.757812 C 548.585938 167.628906 548.46875 167.53125 548.335938 167.542969 C 548.292969 167.546875 548.253906 167.5625 548.21875 167.589844 C 548.015625 167.734375 547.863281 167.917969 547.761719 168.136719 C 544.976562 174.085938 539.996094 178.175781 533.910156 180.886719 C 533.480469 181.074219 533.472656 181.054688 533.890625 180.820312 Z M 557.855469 177.71875 C 558.015625 178.140625 558.230469 178.515625 558.496094 178.851562 C 564.070312 185.945312 570.292969 192.449219 573.140625 201.222656 C 573.1875 201.359375 573.328125 201.429688 573.460938 201.386719 C 573.460938 201.386719 573.460938 201.386719 573.464844 201.386719 C 575.152344 200.839844 576.90625 200.25 578.410156 199.34375 C 582.203125 197.074219 583.660156 193.058594 584.507812 188.734375 C 585.652344 182.914062 585.746094 176.144531 579.675781 173.117188 C 579.359375 172.957031 579.027344 172.882812 578.679688 172.890625 C 576.257812 172.9375 573.847656 173.695312 571.40625 173.6875 C 565.75 173.675781 561.554688 171.710938 557.121094 168.582031 C 556.59375 168.203125 555.929688 167.976562 555.28125 168.128906 C 555.074219 168.175781 554.945312 168.378906 554.992188 168.582031 C 554.992188 168.585938 554.992188 168.585938 554.996094 168.589844 C 555.691406 171.523438 556.644531 174.566406 557.855469 177.71875 Z M 562.765625 194.566406 C 561.464844 190.230469 559.992188 185.769531 558.335938 181.179688 C 557.84375 179.8125 557.332031 178.792969 556.804688 178.125 C 554.765625 175.550781 553.167969 172.699219 552.007812 169.574219 C 551.78125 168.960938 551.363281 168.644531 550.753906 168.628906 C 550.601562 168.625 550.496094 168.695312 550.445312 168.84375 C 549.773438 170.765625 549.214844 172.765625 548.46875 174.667969 C 546.816406 178.886719 545.589844 183.464844 544.78125 188.410156 C 544.234375 191.761719 544.105469 194.910156 544.398438 197.859375 C 544.816406 202.085938 547.207031 206.765625 552.414062 204.539062 C 554.230469 203.765625 555.746094 202.554688 557.667969 201.894531 C 560.203125 201.015625 562.859375 201.515625 565.496094 201.878906 C 567.730469 202.191406 569.953125 202.152344 572.164062 201.769531 C 572.355469 201.738281 572.480469 201.558594 572.449219 201.363281 C 572.445312 201.347656 572.441406 201.328125 572.4375 201.3125 C 569.855469 193.574219 564.316406 187.574219 559.191406 181.308594 C 558.921875 180.980469 558.855469 181.015625 558.996094 181.417969 C 560.472656 185.699219 561.773438 190.066406 562.914062 194.511719 C 562.921875 194.53125 562.914062 194.546875 562.890625 194.554688 L 562.800781 194.578125 C 562.78125 194.585938 562.773438 194.582031 562.765625 194.566406 Z M 556.039062 175.261719 L 554.082031 169.089844 C 554.046875 168.972656 553.925781 168.894531 553.792969 168.90625 L 553.054688 168.988281 C 552.929688 169.003906 552.839844 169.109375 552.851562 169.234375 C 552.855469 169.257812 552.855469 169.277344 552.867188 169.300781 C 553.726562 171.402344 554.738281 173.410156 555.910156 175.320312 C 556.109375 175.636719 556.152344 175.617188 556.039062 175.261719 Z M 653.886719 182.636719 C 652.785156 185.765625 651.476562 189.054688 650.453125 192.0625 C 650.152344 192.945312 650.265625 192.996094 650.785156 192.226562 C 652.667969 189.417969 654.78125 186.449219 657.121094 183.320312 C 657.167969 183.261719 657.15625 183.179688 657.09375 183.136719 C 657.074219 183.117188 657.042969 183.109375 657.015625 183.109375 C 655.953125 183.109375 655.03125 182.90625 654.246094 182.496094 C 654.117188 182.433594 653.964844 182.484375 653.902344 182.609375 C 653.898438 182.613281 653.890625 182.625 653.886719 182.636719 Z M 582.640625 234.503906 C 582.492188 236.058594 581.605469 237.480469 581.09375 238.953125 C 580.636719 240.277344 582.28125 241.148438 582.34375 242.53125 C 582.382812 243.527344 581.933594 244.410156 580.988281 245.1875 C 580.847656 245.300781 580.816406 245.5 580.914062 245.648438 C 581.917969 247.21875 582.929688 248.710938 583.953125 250.128906 C 589.355469 257.597656 594.953125 265.054688 600.882812 272.15625 C 601.136719 272.460938 601.191406 272.429688 601.042969 272.054688 C 598.75 266.351562 596.566406 260.511719 594.328125 254.972656 C 590.382812 245.179688 586.601562 235.351562 582.792969 225.527344 C 579.875 217.976562 577.378906 210.296875 575.308594 202.488281 C 575.28125 202.375 575.167969 202.3125 575.054688 202.339844 C 575.050781 202.339844 575.046875 202.34375 575.046875 202.34375 C 573.417969 202.855469 571.703125 203.144531 569.894531 203.21875 C 568.40625 203.277344 566.84375 202.992188 565.375 202.789062 C 565.222656 202.765625 565.152344 202.832031 565.164062 202.984375 C 565.386719 205.777344 566.023438 209.019531 567.078125 212.710938 C 568.355469 217.167969 569.777344 221.261719 571.34375 224.988281 C 571.515625 225.410156 571.789062 225.644531 572.230469 225.773438 C 573.699219 226.195312 575.085938 226.65625 576.382812 227.15625 C 579.3125 228.28125 582.957031 231.109375 582.640625 234.503906 Z M 540.671875 259.828125 L 541.277344 253.421875 C 541.292969 253.292969 541.265625 253.167969 541.199219 253.058594 C 540.898438 252.53125 540.503906 252.171875 540.367188 251.550781 C 539.757812 248.726562 544.054688 249.363281 543.195312 251.734375 C 542.953125 252.390625 542.597656 252.789062 542.53125 253.542969 C 542.320312 256.019531 542.128906 258.285156 541.960938 260.335938 C 541.945312 260.496094 542.019531 260.582031 542.175781 260.59375 L 542.328125 260.617188 C 542.472656 260.632812 542.609375 260.535156 542.632812 260.390625 C 542.929688 258.859375 543.25 257.496094 543.597656 256.304688 C 543.917969 255.203125 544.734375 254.621094 546.058594 254.554688 C 546.898438 254.511719 547.136719 255.339844 547.078125 256.011719 C 547.050781 256.28125 547.136719 256.324219 547.332031 256.140625 C 548.234375 255.300781 549.441406 254.894531 550.386719 255.789062 C 550.738281 256.125 550.878906 256.515625 550.808594 256.96875 C 550.644531 257.976562 549.785156 257.996094 548.976562 258.304688 C 548.824219 258.363281 548.726562 258.472656 548.675781 258.628906 C 548.1875 260.167969 546.730469 261.417969 545.507812 262.453125 C 545.257812 262.667969 545.167969 262.921875 545.238281 263.226562 C 545.277344 263.417969 545.46875 263.535156 545.660156 263.492188 C 545.679688 263.488281 545.703125 263.480469 545.722656 263.472656 C 548.542969 262.222656 551.757812 260.878906 555.363281 259.445312 C 556.855469 258.859375 557.828125 257.605469 559.019531 256.636719 C 561.101562 254.949219 564.5625 253.613281 567.179688 254.253906 C 568.972656 254.695312 570.109375 255.835938 570.582031 257.675781 C 570.820312 258.582031 571.347656 259.425781 572.15625 259.929688 C 572.269531 259.996094 572.414062 259.960938 572.480469 259.847656 C 572.488281 259.839844 572.492188 259.828125 572.5 259.820312 C 572.882812 258.898438 573.34375 258.027344 573.867188 257.199219 C 575.167969 255.144531 575.996094 252.691406 576.609375 250.324219 C 577.269531 247.753906 578.121094 245.871094 579.824219 243.945312 C 580.21875 243.5 580.289062 242.855469 580.007812 242.335938 C 578.28125 239.175781 582.046875 236.929688 581.191406 233.792969 C 579.824219 228.792969 574.394531 228.101562 570.324219 226.445312 C 568.371094 225.648438 566.597656 224.421875 564.816406 223.339844 C 559.304688 219.984375 553.28125 220.28125 547.816406 223.472656 C 546.882812 224.015625 546.042969 224.722656 545.292969 225.589844 C 541.484375 230.019531 539.542969 235.054688 539.195312 241.027344 C 538.832031 247.144531 539.25 253.089844 540.433594 258.871094 C 540.488281 259.140625 540.507812 259.457031 540.488281 259.816406 C 540.488281 259.867188 540.527344 259.910156 540.578125 259.914062 C 540.628906 259.914062 540.671875 259.875 540.671875 259.828125 Z M 515.753906 250.660156 C 515.730469 250.703125 515.695312 250.714844 515.652344 250.691406 C 511.730469 248.6875 507.785156 246.773438 503.8125 244.933594 C 503.636719 244.855469 503.464844 244.855469 503.285156 244.9375 C 499.667969 246.648438 496.117188 249.5 496.625 253.992188 C 496.800781 255.5625 497.167969 257.097656 497.71875 258.597656 C 498.820312 261.59375 500.253906 264.617188 502.019531 267.679688 C 502.238281 268.066406 502.722656 268.375 503.164062 268.382812 C 504.785156 268.425781 505.941406 269.144531 506.628906 270.53125 C 506.71875 270.71875 506.867188 270.820312 507.074219 270.839844 C 508.902344 271.003906 510.84375 271.328125 512.902344 271.804688 C 515.996094 272.519531 519.566406 272.945312 522.664062 272.652344 C 525.972656 272.339844 530.199219 271.5625 535.34375 270.308594 C 535.550781 270.253906 535.605469 270.132812 535.515625 269.945312 C 535.121094 269.132812 534.820312 268.308594 534.609375 267.464844 C 534.566406 267.296875 534.433594 267.164062 534.265625 267.132812 C 532.671875 266.796875 531.019531 266.351562 529.304688 265.796875 C 528.851562 265.652344 528.484375 265.207031 528 265.542969 C 526.882812 266.316406 525.328125 265.929688 525.253906 264.457031 C 525.191406 263.164062 526.363281 262.339844 527.582031 262.617188 C 528.472656 262.820312 528.53125 263.75 529.226562 264.066406 C 529.417969 264.152344 529.617188 264.230469 529.820312 264.292969 C 531.375 264.8125 532.914062 265.261719 534.445312 265.640625 C 534.648438 265.691406 534.851562 265.570312 534.90625 265.375 L 535.304688 263.859375 C 535.351562 263.691406 535.296875 263.566406 535.144531 263.476562 C 533.472656 262.488281 528.222656 258.941406 529.992188 256.613281 C 530.070312 256.503906 530.222656 256.484375 530.328125 256.5625 C 530.363281 256.585938 530.386719 256.617188 530.40625 256.65625 C 531.539062 259.0625 533.328125 261.070312 535.765625 262.671875 C 535.894531 262.757812 536.011719 262.75 536.125 262.648438 L 537.523438 261.40625 C 537.640625 261.308594 537.640625 261.203125 537.539062 261.097656 C 536.339844 259.855469 535.335938 258.402344 534.523438 256.734375 C 534.1875 256.046875 533.664062 255.554688 533.074219 255.082031 C 532.722656 254.804688 532.652344 254.296875 532.917969 253.929688 C 533.464844 253.171875 535.109375 252.5 535.304688 254.027344 C 535.425781 254.964844 535.238281 255.640625 535.773438 256.523438 C 536.625 257.929688 537.546875 259.21875 538.550781 260.386719 C 538.59375 260.433594 538.648438 260.453125 538.710938 260.433594 C 538.804688 260.402344 538.828125 260.347656 538.785156 260.261719 C 537.273438 257.011719 536.152344 254.039062 535.425781 251.339844 C 533.921875 245.78125 532.804688 239.359375 532.078125 232.082031 C 531.558594 226.886719 530.363281 222.128906 524.234375 221.304688 C 524.023438 221.273438 523.828125 221.410156 523.78125 221.617188 C 523.660156 222.136719 523.445312 222.609375 523.140625 223.03125 C 521.070312 225.863281 521.9375 228.820312 523.355469 231.816406 C 525.515625 236.390625 527.574219 241.398438 529.515625 246.835938 C 529.523438 246.855469 529.515625 246.867188 529.496094 246.875 C 529.457031 246.894531 529.433594 246.882812 529.414062 246.847656 C 527.179688 241.367188 524.746094 236.015625 522.121094 230.789062 C 521.183594 228.929688 520.886719 226.980469 521.230469 224.945312 C 521.238281 224.902344 521.207031 224.863281 521.164062 224.855469 C 521.144531 224.851562 521.121094 224.859375 521.105469 224.867188 C 520.300781 225.488281 519.332031 225.976562 518.195312 226.347656 C 516.390625 226.9375 514.664062 227.535156 513.003906 228.140625 C 510.035156 229.222656 506.554688 231.480469 505.175781 234.285156 C 504.339844 235.972656 504.027344 237.839844 504.230469 239.878906 C 504.335938 240.976562 505.074219 242.0625 505.5625 243.054688 C 505.628906 243.191406 505.632812 243.328125 505.578125 243.464844 C 505.460938 243.761719 505.25 244.003906 504.949219 244.199219 C 504.859375 244.253906 504.835938 244.371094 504.890625 244.460938 C 504.910156 244.488281 504.933594 244.511719 504.964844 244.53125 C 508.621094 246.417969 512.210938 248.429688 515.726562 250.570312 C 515.765625 250.59375 515.773438 250.625 515.753906 250.660156 Z M 624.546875 222.867188 C 624.550781 222.757812 624.53125 222.65625 624.488281 222.5625 C 624.378906 222.328125 624.285156 222.335938 624.210938 222.582031 C 621.484375 231.398438 618.601562 240.171875 615.570312 248.898438 C 614.691406 251.433594 613.851562 253.933594 613.058594 256.398438 C 610.628906 263.960938 608.140625 271.453125 605.597656 278.882812 C 605.433594 279.363281 605.394531 279.875 605.480469 280.421875 C 607.648438 294.132812 608.964844 308.066406 609.429688 322.21875 C 609.625 328.160156 609.777344 334.097656 609.890625 340.035156 C 609.898438 340.25 609.972656 340.277344 610.121094 340.117188 C 610.171875 340.0625 610.230469 339.960938 610.289062 339.820312 C 613.039062 333.246094 614.980469 326.597656 616.109375 319.882812 C 617.140625 313.710938 618.210938 305.285156 619.328125 294.601562 C 619.910156 289 620.441406 283.210938 620.929688 277.234375 C 622.050781 263.378906 623.125 249.015625 624.140625 234.160156 C 624.355469 230.96875 624.492188 227.207031 624.546875 222.867188 Z M 553.886719 266.238281 C 551.28125 266.53125 548.675781 267.0625 546.058594 267.832031 C 545.988281 267.851562 545.9375 267.890625 545.90625 267.953125 L 545.035156 269.585938 C 544.960938 269.714844 544.992188 269.746094 545.117188 269.667969 C 546.582031 268.8125 547.703125 268.867188 548.472656 269.839844 C 548.945312 270.433594 548.808594 271.332031 548.074219 271.65625 C 547.378906 271.96875 546.695312 271.914062 546.027344 271.503906 C 544.746094 270.714844 543.300781 271.339844 542.125 271.945312 C 541.941406 272.042969 541.863281 272.195312 541.886719 272.40625 C 542.492188 277.085938 544.195312 281.453125 546.992188 285.511719 C 549.375 288.96875 552.527344 290.765625 556.585938 291.351562 C 559.492188 291.773438 562.667969 292.035156 566.117188 292.140625 C 566.273438 292.140625 566.410156 292.050781 566.457031 291.90625 C 566.90625 290.625 567.824219 289.949219 569.207031 289.882812 C 570.5 289.820312 571.863281 289.78125 573.308594 289.765625 C 573.9375 289.757812 574.382812 289.429688 574.632812 288.851562 C 575.328125 287.246094 576.273438 286.9375 577.671875 286.304688 C 577.808594 286.242188 577.90625 286.144531 577.96875 286.007812 C 579.316406 283.0625 579.585938 279.71875 579.3125 276.640625 C 579.265625 276.128906 579.042969 275.699219 578.644531 275.351562 C 577.367188 274.238281 576.808594 272.84375 576.96875 271.171875 C 577.28125 267.960938 578.359375 263.75 574.125 262.5 C 572.863281 262.128906 571.28125 261.726562 570.628906 260.511719 C 570.304688 259.90625 569.996094 259.277344 569.699219 258.632812 C 568.46875 255.941406 566.375 254.996094 563.414062 255.800781 C 561.117188 256.425781 559.355469 257.6875 557.527344 259.179688 C 557.164062 259.464844 556.789062 259.710938 556.390625 259.910156 C 553.753906 261.210938 550.945312 262.246094 548.199219 263.363281 C 547.488281 263.648438 546.753906 264.082031 545.996094 264.652344 C 545.902344 264.722656 545.863281 264.820312 545.886719 264.941406 L 546.160156 266.464844 C 546.1875 266.632812 546.289062 266.691406 546.449219 266.636719 C 548.597656 265.972656 550.914062 265.464844 553.398438 265.125 C 553.75 265.078125 554.007812 265.214844 554.160156 265.542969 L 554.214844 265.652344 C 554.375 266 554.269531 266.195312 553.886719 266.238281 Z M 530.480469 293.058594 C 526.640625 291.480469 523.046875 289.675781 519.574219 287.109375 C 517.921875 285.886719 516.601562 284.601562 515.621094 283.25 C 513.894531 280.886719 512.28125 279.144531 509.753906 278.183594 C 508.597656 277.742188 507.46875 277.316406 506.359375 276.910156 C 505.765625 276.691406 505.355469 276.144531 505.308594 275.511719 C 505.234375 274.472656 505.15625 273.46875 505.074219 272.511719 C 504.980469 271.40625 504.484375 270.59375 503.59375 270.0625 C 501.488281 268.808594 500.625 267.210938 499.492188 265.167969 C 497.75 262.035156 496.46875 259.113281 495.640625 256.40625 C 495.558594 256.144531 495.484375 256.144531 495.414062 256.414062 C 494.066406 261.796875 495.207031 267.566406 497.84375 272.320312 C 500.078125 276.351562 503.167969 279.882812 507.125 282.914062 C 511.441406 286.226562 516.203125 288.949219 521.40625 291.082031 C 524.304688 292.269531 527.308594 293.015625 530.414062 293.324219 C 531.035156 293.378906 531.058594 293.292969 530.480469 293.058594 Z M 627.503906 277.402344 C 625.488281 288.457031 623.382812 299.464844 620.636719 310.511719 C 620.191406 312.292969 619.738281 314.136719 619.269531 316.046875 C 616.902344 325.691406 614.003906 335.03125 610.574219 344.070312 C 610.320312 344.738281 610.199219 345.417969 610.214844 346.113281 C 610.289062 349.453125 610.410156 352.890625 610.59375 356.410156 C 611.214844 368.839844 611.878906 381.484375 612.578125 394.335938 C 612.675781 396.070312 612.8125 396.074219 612.984375 394.339844 C 614.136719 382.925781 616.769531 372.113281 620.035156 360.363281 C 622.027344 353.210938 624.054688 346.0625 626.132812 338.910156 C 628.613281 330.371094 630.386719 321.578125 631.953125 312.792969 C 634.632812 297.726562 636.328125 283.792969 634.019531 269.578125 C 633.414062 265.835938 632.761719 261.992188 632.0625 258.050781 C 632.042969 257.949219 632.011719 257.859375 631.957031 257.777344 C 631.921875 257.71875 631.847656 257.699219 631.789062 257.738281 C 631.761719 257.753906 631.738281 257.78125 631.730469 257.8125 C 629.890625 264.25 628.945312 269.464844 627.503906 277.402344 Z M 546.445312 258.085938 L 544.996094 258.089844 C 544.792969 258.089844 544.613281 258.207031 544.53125 258.390625 C 544.277344 258.960938 544.003906 259.585938 543.710938 260.257812 C 543.417969 260.933594 543.582031 261.511719 544.226562 261.890625 C 544.359375 261.96875 544.484375 261.949219 544.597656 261.847656 C 545.566406 260.917969 547.21875 259.246094 547.117188 257.925781 C 547.113281 257.867188 547.0625 257.824219 547.003906 257.828125 C 546.984375 257.828125 546.964844 257.835938 546.949219 257.847656 L 546.792969 257.964844 C 546.691406 258.046875 546.570312 258.085938 546.445312 258.085938 Z M 529.078125 290.539062 C 530.933594 291.414062 532.597656 291.953125 534.066406 292.140625 C 537.902344 292.648438 541.824219 292.339844 545.835938 291.21875 C 547.199219 290.839844 548.46875 290.480469 549.652344 290.140625 C 549.867188 290.078125 549.878906 289.984375 549.695312 289.863281 C 548.796875 289.269531 547.992188 288.515625 547.292969 287.613281 C 543.796875 283.089844 541.621094 278.097656 540.753906 272.632812 C 540.726562 272.4375 540.609375 272.355469 540.417969 272.382812 C 538.882812 272.613281 537.738281 272.488281 536.574219 271.453125 C 536.304688 271.210938 536 271.132812 535.65625 271.21875 C 532.628906 271.957031 529.539062 272.667969 526.394531 273.347656 C 523.414062 273.988281 520.558594 274.238281 517.839844 274.097656 C 514.460938 273.925781 510.894531 273.027344 507.542969 272.382812 C 507.371094 272.351562 507.289062 272.417969 507.296875 272.59375 L 507.386719 274.496094 C 507.398438 274.765625 507.566406 275.003906 507.820312 275.109375 C 509.207031 275.679688 510.527344 276.261719 511.789062 276.863281 C 513.777344 277.816406 515.308594 279.429688 516.582031 281.25 C 519.367188 285.238281 524.417969 288.328125 529.078125 290.539062 Z M 549.953125 291.355469 C 546.625 292.722656 543.28125 293.503906 539.925781 293.703125 C 539.796875 293.714844 539.699219 293.824219 539.707031 293.957031 C 539.707031 293.96875 539.710938 293.980469 539.714844 293.996094 C 540 295.1875 540.179688 296.386719 540.257812 297.601562 C 540.425781 300.164062 540.527344 302.753906 540.570312 305.378906 C 540.632812 309.640625 541.257812 313.5625 542.449219 317.140625 C 543.808594 321.226562 545.882812 326.605469 548.671875 333.28125 C 551.367188 339.738281 554.839844 345.660156 558.355469 351.515625 C 560.425781 354.972656 562.671875 358.910156 565.09375 363.316406 C 565.417969 363.90625 565.570312 363.863281 565.554688 363.191406 C 565.449219 358.535156 565.601562 353.824219 566.101562 348.976562 C 566.667969 343.507812 567.4375 337.875 567.542969 332.558594 C 567.746094 322.574219 566.964844 312.820312 565.214844 303.296875 C 564.5625 299.761719 563.714844 296.417969 562.675781 293.269531 C 562.585938 293.003906 562.339844 292.824219 562.058594 292.820312 C 558.304688 292.777344 554.777344 292.195312 551.484375 291.070312 C 550.828125 290.847656 550.507812 291.132812 549.953125 291.355469 Z M 606.835938 307.253906 L 606.730469 307.269531 C 606.679688 307.277344 606.640625 307.316406 606.636719 307.371094 C 605.695312 316.496094 604.632812 325.578125 603.453125 334.613281 C 601.621094 348.652344 601.238281 361.765625 600.945312 375.550781 C 600.757812 384.34375 600.730469 392.257812 602.207031 400.496094 C 602.910156 404.425781 604.175781 408.167969 606.003906 411.71875 C 607.964844 415.53125 609.929688 419.09375 611.90625 422.402344 C 612.207031 422.902344 612.335938 422.863281 612.308594 422.28125 C 610.582031 390.09375 608.867188 358.65625 607.980469 326.945312 C 607.90625 324.347656 607.800781 321.769531 607.65625 319.207031 C 607.421875 315.113281 607.164062 311.136719 606.894531 307.292969 C 606.882812 307.265625 606.867188 307.25 606.835938 307.253906 Z M 606.835938 307.253906 " fill-opacity="1" fill-rule="nonzero"/></g><g clip-path="url(#672e078642)"><path fill="#323232" d="M 663.003906 434.375 L 661.570312 434.375 C 660.71875 424.246094 660.988281 415.40625 661.5 404.21875 C 661.84375 396.640625 662.257812 389.089844 662.742188 381.574219 C 662.796875 380.746094 662.664062 380.714844 662.34375 381.484375 C 660.878906 384.980469 659.410156 388.566406 657.933594 392.238281 C 655.460938 398.398438 653.578125 404.730469 652.285156 411.230469 C 651.460938 415.398438 651.273438 419.949219 651.734375 424.882812 C 652.113281 428.96875 652.433594 432.132812 652.695312 434.378906 L 651.09375 434.378906 C 650.589844 431.234375 650.242188 428.066406 650.050781 424.886719 C 649.683594 418.835938 650.234375 412.820312 651.71875 406.949219 C 654.316406 396.664062 658.320312 386.957031 662.734375 377.367188 C 662.785156 377.253906 662.8125 377.136719 662.824219 377.011719 C 664.28125 358.304688 665.84375 339.351562 667.523438 320.164062 C 668.292969 311.320312 668.632812 302.4375 669.089844 293.515625 C 669.40625 287.261719 669.957031 281.039062 670.675781 274.863281 C 672.535156 258.785156 677.746094 242.105469 690.855469 231.902344 C 693.351562 229.960938 696.191406 228.105469 699.371094 226.335938 C 700.625 225.636719 701.535156 224.65625 702.101562 223.394531 C 702.257812 223.046875 702.101562 222.636719 701.75 222.480469 C 701.65625 222.4375 701.554688 222.417969 701.449219 222.421875 C 698.304688 222.503906 695.597656 222.890625 692.648438 223.953125 C 689.117188 225.21875 685.648438 226.820312 682.246094 228.746094 C 681.328125 229.269531 680.449219 229.21875 679.605469 228.601562 C 674.328125 224.71875 670.097656 219.246094 670.046875 212.472656 C 670.007812 207.667969 671.285156 203.605469 673.878906 200.289062 C 676.253906 197.242188 678.957031 196.644531 681.980469 198.492188 C 683.097656 199.171875 684.195312 200.230469 685.125 201.171875 C 689.773438 205.890625 694.285156 210.125 698.664062 213.871094 C 700.421875 215.371094 702.328125 216.601562 704.171875 217.996094 C 704.320312 218.109375 704.480469 218.179688 704.648438 218.214844 C 704.890625 218.257812 704.945312 218.179688 704.804688 217.976562 C 701.695312 213.488281 698.460938 209.105469 695.101562 204.839844 C 693.835938 203.226562 692.613281 201.929688 691.445312 200.9375 C 691.050781 200.617188 691.066406 200.292969 691.050781 199.820312 C 690.925781 195.097656 692.625 191.523438 696.160156 189.078125 C 700.992188 185.738281 708.648438 184.125 713.738281 187.792969 C 717.835938 190.742188 717.855469 197.039062 716.34375 201.453125 C 714.507812 206.804688 711.761719 211.855469 708.972656 216.90625 C 708.691406 217.417969 708.503906 218.023438 708.324219 218.574219 C 708.261719 218.785156 708.378906 219.011719 708.589844 219.078125 C 708.679688 219.105469 708.777344 219.101562 708.867188 219.066406 C 709.253906 218.90625 709.617188 218.664062 709.960938 218.34375 C 711.65625 216.78125 713.070312 215.117188 714.207031 213.347656 C 717.179688 208.722656 717.417969 202.324219 723.425781 200.390625 C 725.367188 199.765625 727.570312 199.855469 730.039062 200.660156 C 735.421875 202.40625 741.019531 206.234375 741.621094 212.054688 C 742.070312 216.398438 740.476562 222.074219 736.242188 224.117188 C 732.597656 225.871094 728.214844 225.351562 724.195312 224.574219 C 722.105469 224.167969 720.144531 223.742188 718.304688 223.292969 C 717.988281 223.214844 717.972656 223.25 718.261719 223.402344 C 719.46875 224.035156 720.894531 224.378906 722.160156 224.800781 C 723.191406 225.144531 724.230469 225.464844 725.285156 225.761719 C 728.734375 226.734375 732.066406 227.757812 735.28125 228.828125 C 737.09375 229.433594 739.40625 230.457031 740.375 232.039062 C 742.597656 235.660156 740.28125 241.644531 737.867188 244.589844 C 734.128906 249.152344 729.164062 251.652344 722.976562 252.089844 C 720.789062 252.25 716.964844 251.75 715.882812 249.542969 C 715.492188 248.734375 715.179688 247.816406 714.953125 246.78125 C 714.125 242.964844 713.332031 239.242188 711.9375 235.613281 C 711.917969 235.5625 711.882812 235.523438 711.839844 235.492188 C 711.828125 235.484375 711.820312 235.476562 711.808594 235.464844 C 711.777344 235.421875 711.765625 235.425781 711.78125 235.480469 C 712.605469 238.21875 713.234375 241.359375 713.679688 244.90625 C 713.855469 246.335938 713.695312 247.558594 713.035156 248.8125 C 709.359375 255.824219 701.78125 257.40625 694.863281 254.199219 C 688.78125 251.375 687.855469 243.601562 688.914062 237.800781 C 689.113281 236.6875 689.554688 235.605469 690.238281 234.542969 C 690.546875 234.066406 690.480469 234.007812 690.042969 234.363281 C 688.640625 235.496094 687.335938 236.75 686.132812 238.121094 C 680.117188 244.980469 676.097656 253.75 674.097656 262.554688 C 672.050781 271.550781 671.222656 279.800781 670.621094 290.257812 C 669.726562 305.867188 668.765625 319.59375 667.730469 331.429688 C 667.503906 334.011719 667.292969 336.585938 667.09375 339.15625 C 666.179688 350.703125 665.304688 362.054688 664.46875 373.210938 C 664.429688 373.695312 664.535156 373.730469 664.785156 373.3125 C 668.371094 367.277344 672.035156 361.65625 675.769531 356.453125 C 683.628906 345.511719 691.546875 333.753906 698.707031 323.425781 C 698.785156 323.320312 698.796875 323.203125 698.75 323.082031 C 696.335938 316.746094 694.289062 309.925781 692.609375 302.617188 C 691.324219 297.039062 690.597656 290.597656 694.53125 285.847656 C 694.613281 285.746094 694.71875 285.675781 694.84375 285.632812 C 694.984375 285.585938 695.101562 285.503906 695.195312 285.390625 C 695.269531 285.296875 695.308594 285.167969 695.308594 285.007812 C 695.300781 278.078125 695.503906 271.214844 695.914062 264.414062 C 695.980469 263.320312 695.46875 262.03125 696.445312 261.179688 C 698.851562 259.101562 701.371094 258.855469 704 260.449219 C 706.382812 261.890625 708.933594 264.878906 709.214844 267.8125 C 709.476562 270.558594 708.25 273.082031 707.296875 275.515625 C 707.269531 275.597656 707.292969 275.65625 707.367188 275.691406 L 707.457031 275.738281 C 707.472656 275.746094 707.480469 275.738281 707.488281 275.726562 C 708.316406 274.335938 709.191406 273.207031 710.113281 272.339844 C 710.464844 272.011719 710.921875 271.851562 711.480469 271.855469 C 713.507812 271.871094 715.398438 272.054688 717.164062 272.410156 C 720.730469 273.132812 724.039062 275.367188 722.488281 279.597656 C 722.429688 279.753906 722.488281 279.828125 722.648438 279.828125 C 726.359375 279.820312 730.851562 281.410156 730.527344 285.855469 C 730.339844 288.394531 728.957031 291.304688 727.277344 293.269531 C 726.816406 293.800781 726.910156 293.917969 727.542969 293.621094 C 730.878906 292.0625 734.789062 291.757812 737.949219 293.652344 C 739.589844 294.636719 740.378906 296.09375 740.316406 298.015625 C 740.304688 298.300781 740.246094 298.554688 740.136719 298.78125 C 739.878906 299.316406 739.71875 299.289062 739.65625 298.695312 C 739.585938 298.007812 739.511719 297.3125 739.179688 296.691406 C 737.34375 293.28125 732.90625 292.703125 729.546875 293.878906 C 726.332031 295.011719 723.878906 297.230469 721.410156 299.664062 C 717.003906 304.027344 713.03125 308.65625 709.496094 313.550781 C 708.425781 315.027344 707.429688 316.566406 706.496094 318.167969 C 706.363281 318.394531 706.410156 318.441406 706.640625 318.308594 C 713.90625 313.96875 721.425781 309.726562 729.199219 305.589844 C 732.074219 304.058594 734.8125 302.734375 737.410156 301.621094 C 738.921875 300.976562 740.210938 300.648438 741.285156 300.648438 C 743.851562 300.640625 746.71875 301.8125 748.242188 303.941406 C 750.140625 306.59375 749.925781 310.160156 748.492188 312.976562 C 746.84375 316.222656 743.441406 317.550781 739.992188 317.804688 C 734.207031 318.222656 728.378906 318.851562 722.511719 319.6875 C 722.445312 319.695312 722.398438 319.757812 722.410156 319.828125 C 722.410156 319.839844 722.414062 319.851562 722.421875 319.867188 C 723.070312 321.171875 721.308594 322.4375 720.289062 322.972656 C 716.578125 324.921875 711.277344 325.277344 707.457031 324.773438 C 705.34375 324.496094 703.089844 324.085938 700.707031 323.546875 C 700.511719 323.503906 700.308594 323.582031 700.195312 323.742188 C 695.109375 330.800781 691.011719 337.207031 688.265625 340.972656 C 684.757812 345.777344 681.359375 350.453125 678.074219 354.996094 C 673.046875 361.960938 668.285156 369.066406 664.53125 376.726562 C 664.28125 377.238281 664.148438 377.785156 664.113281 378.351562 C 663.398438 391.085938 662.914062 405.148438 662.652344 420.53125 C 662.558594 425.4375 662.679688 430.054688 663.003906 434.375 Z M 698.027344 196.296875 C 698.273438 196.894531 698.5 197.5 698.703125 198.113281 C 700.28125 202.75 702.074219 207.535156 704.070312 212.476562 C 704.402344 213.304688 704.59375 214.722656 705.214844 215.324219 C 705.386719 215.488281 705.453125 215.453125 705.410156 215.21875 C 704.222656 208.425781 702.789062 201.789062 702.511719 194.957031 C 702.503906 194.753906 702.621094 194.570312 702.808594 194.488281 L 702.945312 194.429688 C 703.109375 194.355469 703.203125 194.410156 703.210938 194.59375 C 703.453125 198.582031 703.957031 202.496094 704.726562 206.347656 C 705.164062 208.507812 705.601562 210.617188 706.054688 212.679688 C 706.101562 212.917969 706.175781 213.144531 706.265625 213.359375 C 706.390625 213.660156 706.503906 213.652344 706.605469 213.34375 C 708.9375 206.230469 710.515625 198.867188 711.347656 191.253906 C 711.367188 191.082031 711.421875 191.070312 711.515625 191.210938 C 711.578125 191.296875 711.601562 191.402344 711.597656 191.535156 C 711.242188 198.816406 709.839844 205.820312 707.902344 212.84375 C 707.488281 214.355469 707.289062 215.972656 707.113281 217.5 C 707.046875 218.097656 707.121094 218.117188 707.339844 217.558594 C 709.304688 212.527344 711.234375 207.71875 713.140625 203.132812 C 713.78125 201.585938 714.488281 199.421875 715.257812 196.632812 C 715.558594 195.550781 715.632812 194.523438 715.476562 193.542969 C 714.980469 190.40625 713.109375 188.308594 709.859375 187.253906 C 707.027344 186.328125 704.023438 186.460938 700.867188 187.640625 C 697.902344 188.742188 694.300781 191.019531 693.105469 193.984375 C 692.378906 195.796875 692.074219 197.683594 692.195312 199.644531 C 692.199219 199.789062 692.265625 199.929688 692.378906 200.027344 C 693.421875 200.972656 694.289062 201.851562 694.980469 202.671875 C 697.152344 205.242188 699.3125 207.871094 701.453125 210.566406 C 702.296875 211.628906 702.992188 212.78125 703.867188 213.8125 C 704.058594 214.035156 704.089844 214.011719 703.972656 213.742188 C 703.429688 212.503906 702.773438 211.351562 702.300781 210.035156 C 700.652344 205.507812 699.089844 201.449219 697.96875 196.3125 C 697.914062 196.070312 697.933594 196.066406 698.027344 196.296875 Z M 710.730469 212.359375 C 711.128906 211.507812 711.484375 210.621094 711.792969 209.699219 C 712.554688 207.425781 713.628906 205.363281 714.496094 203.203125 C 715.136719 201.605469 715.582031 199.957031 715.839844 198.25 C 715.84375 198.214844 715.832031 198.191406 715.796875 198.183594 L 715.699219 198.160156 C 715.691406 198.15625 715.683594 198.160156 715.679688 198.167969 C 714.910156 200.609375 714.011719 203.058594 712.992188 205.515625 C 712.074219 207.730469 711.394531 209.949219 710.6875 212.214844 C 710.679688 212.234375 710.679688 212.261719 710.6875 212.285156 C 710.699219 212.316406 710.707031 212.347656 710.714844 212.382812 C 710.722656 212.417969 710.726562 212.417969 710.71875 212.382812 C 710.722656 212.378906 710.722656 212.371094 710.730469 212.359375 Z M 679.769531 205.097656 C 679.789062 205.054688 679.816406 205.042969 679.859375 205.058594 C 682.589844 206.113281 685.226562 207.378906 687.773438 208.855469 C 691.671875 211.117188 695.613281 213.539062 699.59375 216.121094 C 699.644531 216.15625 699.683594 216.144531 699.714844 216.09375 L 699.773438 216.007812 C 699.820312 215.921875 699.800781 215.8125 699.726562 215.753906 C 694.253906 211.246094 688.960938 206.515625 683.851562 201.566406 C 682.585938 200.339844 681.15625 199.101562 679.585938 198.402344 C 678.578125 197.953125 677.527344 198.25 676.433594 199.28125 C 672.167969 203.296875 670.472656 209.082031 671.339844 214.734375 C 671.417969 215.246094 671.691406 215.546875 672.167969 215.632812 C 679.082031 216.925781 686.03125 217.859375 693.007812 218.4375 C 694.421875 218.554688 695.84375 218.605469 697.269531 218.601562 C 698.507812 218.597656 700.421875 218.828125 703.007812 219.304688 C 703.140625 219.328125 703.222656 219.273438 703.257812 219.144531 L 703.28125 219.050781 C 703.300781 218.988281 703.277344 218.949219 703.214844 218.933594 C 702.242188 218.695312 701.28125 218.488281 700.34375 218.320312 C 696.683594 217.664062 693.0625 216.925781 689.472656 216.101562 C 684.117188 214.875 678.757812 212.640625 674.640625 208.929688 C 674.589844 208.882812 674.589844 208.835938 674.636719 208.78125 L 674.722656 208.695312 C 674.792969 208.621094 674.902344 208.609375 674.980469 208.667969 C 679.066406 211.539062 683.421875 213.570312 688.046875 214.765625 C 691.492188 215.652344 694.925781 216.378906 698.347656 216.941406 C 699.476562 217.125 699.53125 216.953125 698.515625 216.433594 C 696.875 215.589844 695.355469 214.476562 693.785156 213.539062 C 689.125 210.765625 684.601562 207.589844 679.808594 205.203125 C 679.769531 205.183594 679.753906 205.148438 679.769531 205.101562 Z M 733.332031 206.027344 C 728.652344 209.222656 724.578125 213.449219 719.582031 216.457031 C 717.429688 217.75 714.910156 218.832031 712.023438 219.710938 C 711.617188 219.835938 711.210938 220.007812 710.800781 220.234375 C 710.441406 220.433594 710.464844 220.546875 710.871094 220.578125 C 713.328125 220.765625 715.875 220.640625 718.507812 220.195312 C 722.351562 219.546875 726.144531 218.140625 729.847656 216.929688 C 733.382812 215.773438 736.890625 214.984375 740.371094 214.550781 C 740.496094 214.535156 740.566406 214.460938 740.566406 214.332031 C 740.597656 210.675781 739.261719 207.730469 736.558594 205.503906 C 734.683594 203.949219 732.621094 202.75 730.371094 201.902344 C 729.257812 201.480469 728.238281 201.191406 727.3125 201.035156 C 724.125 200.488281 720.996094 202.703125 719.519531 205.425781 C 718.308594 207.640625 717.351562 210.285156 716.183594 212.691406 C 715.640625 213.8125 714.941406 214.738281 714.164062 215.691406 C 714.042969 215.835938 714.0625 215.855469 714.214844 215.75 C 716.234375 214.347656 718.609375 213.007812 720.375 211.621094 C 723.855469 208.894531 726.25 206.21875 729.683594 202.378906 C 729.71875 202.339844 729.78125 202.332031 729.824219 202.367188 L 729.90625 202.433594 C 729.953125 202.472656 729.960938 202.515625 729.925781 202.5625 C 727.566406 205.851562 724.988281 208.738281 722.183594 211.222656 C 719.609375 213.5 716.328125 215.488281 713.382812 217.554688 C 712.320312 218.304688 712.398438 218.460938 713.621094 218.015625 C 714.507812 217.695312 715.375 217.390625 716.214844 217.089844 C 718.179688 216.398438 720.28125 215.175781 722.515625 213.417969 C 724.503906 211.851562 726.527344 210.226562 728.585938 208.539062 C 729.941406 207.425781 731.546875 206.398438 733.160156 205.707031 C 734.28125 205.238281 734.335938 205.34375 733.332031 206.027344 Z M 739.339844 219.449219 C 739.816406 218.339844 740.171875 217.164062 740.402344 215.914062 C 740.433594 215.773438 740.339844 215.636719 740.195312 215.609375 C 740.167969 215.601562 740.140625 215.601562 740.113281 215.605469 C 736.351562 216.089844 732.75 216.902344 729.304688 218.039062 C 725.058594 219.453125 720.953125 220.910156 716.578125 221.503906 C 715.863281 221.601562 715.859375 221.722656 716.5625 221.871094 C 719.710938 222.523438 722.914062 223.164062 726.164062 223.785156 C 728.332031 224.199219 730.390625 224.363281 732.335938 224.273438 C 735.882812 224.117188 737.945312 222.6875 739.339844 219.449219 Z M 702.019531 220.28125 C 693.324219 219.738281 684.613281 218.714844 675.890625 217.207031 C 674.574219 216.976562 673.304688 216.683594 672.089844 216.339844 C 671.996094 216.308594 671.890625 216.359375 671.863281 216.457031 C 671.851562 216.492188 671.851562 216.53125 671.863281 216.566406 C 672.242188 217.859375 672.824219 219.132812 673.613281 220.378906 C 674.113281 221.167969 674.894531 221.160156 675.703125 221.199219 C 679.261719 221.375 682.640625 221.53125 685.847656 221.667969 C 688.695312 221.789062 691.148438 221.765625 693.210938 221.601562 C 695.570312 221.410156 697.886719 221.257812 700.171875 221.144531 C 700.714844 221.113281 701.234375 221.054688 701.734375 220.964844 C 702.121094 220.898438 702.238281 220.683594 702.085938 220.328125 C 702.074219 220.300781 702.050781 220.28125 702.019531 220.28125 Z M 682.007812 227.679688 C 685.78125 225.59375 688.722656 224.238281 692.378906 223.058594 C 692.910156 222.886719 692.898438 222.796875 692.339844 222.785156 C 686.714844 222.707031 680.980469 222.460938 675.144531 222.046875 C 674.761719 222.019531 674.699219 222.152344 674.957031 222.433594 C 676.585938 224.242188 678.449219 225.9375 680.542969 227.511719 C 681.023438 227.878906 681.496094 227.964844 682.007812 227.679688 Z M 710.390625 222.984375 C 709.71875 222.734375 709.640625 222.855469 710.164062 223.347656 C 715.296875 228.136719 719.433594 233.671875 723.230469 239.425781 C 725.214844 242.429688 727.296875 246.289062 728.078125 249.875 C 728.113281 250.023438 728.257812 250.109375 728.402344 250.078125 C 728.410156 250.078125 728.414062 250.074219 728.421875 250.070312 C 730.925781 249.28125 733.199219 248.003906 735.238281 246.234375 C 735.390625 246.105469 735.382812 245.980469 735.214844 245.863281 C 734.433594 245.316406 734.007812 244.390625 733.394531 243.660156 C 730.121094 239.738281 726.996094 236.144531 724.027344 232.890625 C 722.167969 230.851562 720.503906 229.191406 719.03125 227.90625 C 716.710938 225.890625 713.835938 224.246094 710.390625 222.984375 Z M 738.730469 232.148438 C 737.445312 230.734375 734.949219 229.882812 733.15625 229.320312 C 728.921875 227.996094 724.667969 226.652344 720.386719 225.292969 C 719.648438 225.058594 718.898438 224.875 718.148438 224.742188 C 717.972656 224.710938 717.941406 224.761719 718.0625 224.894531 C 718.46875 225.351562 718.929688 225.734375 719.445312 226.046875 C 725.609375 229.773438 731.683594 234.285156 737.675781 239.585938 C 738.089844 239.957031 738.476562 240.359375 738.835938 240.789062 C 738.882812 240.851562 738.972656 240.859375 739.03125 240.8125 C 739.046875 240.796875 739.0625 240.777344 739.070312 240.757812 C 740.03125 238.375 740.625 234.238281 738.730469 232.148438 Z M 693.105469 249.328125 C 693.289062 248.648438 693.53125 248 693.828125 247.390625 C 697.226562 240.484375 700.585938 233.386719 703.910156 226.097656 C 704.359375 225.113281 704.191406 224.992188 703.410156 225.734375 C 700.359375 228.628906 697.589844 231.371094 695.101562 233.960938 C 693.933594 235.171875 692.460938 237.054688 690.691406 239.613281 C 690.679688 239.632812 690.667969 239.628906 690.664062 239.609375 C 690.664062 239.597656 690.660156 239.589844 690.660156 239.578125 C 690.648438 239.539062 690.652344 239.496094 690.675781 239.457031 C 693.613281 234.453125 697.59375 230.542969 701.5625 226.382812 C 701.59375 226.351562 701.59375 226.320312 701.566406 226.292969 L 701.480469 226.195312 C 701.472656 226.1875 701.46875 226.183594 701.460938 226.191406 C 700.109375 227.246094 698.773438 228.179688 697.453125 229 C 693.992188 231.148438 690.683594 234.484375 689.96875 238.535156 C 689.230469 242.6875 689.78125 246.792969 692.074219 250.359375 C 694.074219 253.46875 698.398438 254.894531 701.820312 254.910156 C 701.945312 254.910156 702.054688 254.824219 702.082031 254.699219 C 702.667969 252.132812 703.164062 249.644531 703.5625 247.230469 C 704.511719 241.457031 705.300781 236.148438 705.929688 231.3125 C 706.160156 229.558594 706.230469 227.78125 706.285156 226.035156 C 706.304688 225.574219 706.0625 225.351562 705.554688 225.371094 C 705.480469 225.375 705.414062 225.417969 705.382812 225.484375 C 701.527344 233.222656 697.453125 241.175781 693.160156 249.351562 C 693.085938 249.5 693.066406 249.496094 693.105469 249.328125 Z M 727.082031 250.128906 C 725.96875 245.816406 723.917969 241.964844 721.417969 238.285156 C 719.265625 235.109375 716.917969 232.082031 714.375 229.191406 C 713.097656 227.742188 711.785156 226.4375 710.429688 225.285156 C 710.285156 225.160156 710.25 225.1875 710.328125 225.363281 C 712.066406 229.179688 713.324219 232.964844 714.105469 236.710938 C 714.882812 240.449219 715.445312 244.183594 716.46875 247.804688 C 716.871094 249.246094 717.753906 250.148438 719.109375 250.519531 C 721.59375 251.199219 724.1875 251.179688 726.886719 250.472656 C 727.0625 250.417969 727.128906 250.304688 727.082031 250.128906 Z M 704.929688 243.742188 C 704.28125 247.488281 703.59375 251.15625 702.867188 254.734375 C 702.847656 254.839844 702.886719 254.890625 703 254.878906 C 703.964844 254.78125 707.222656 254.105469 707.578125 252.894531 C 708.46875 249.789062 708.863281 246.648438 709.234375 243.421875 C 709.660156 239.730469 709.722656 235.992188 709.417969 232.210938 C 709.246094 230.019531 708.621094 227.699219 707.722656 225.59375 C 707.554688 225.195312 707.449219 225.210938 707.40625 225.640625 C 706.875 231.21875 706.050781 237.253906 704.929688 243.742188 Z M 721.910156 228.492188 C 720.398438 227.515625 718.824219 226.503906 717.191406 225.449219 C 717.152344 225.421875 717.117188 225.429688 717.09375 225.46875 L 717.027344 225.558594 C 717.023438 225.566406 717.027344 225.566406 717.03125 225.566406 C 718.472656 226.527344 719.742188 227.519531 720.832031 228.542969 C 725.128906 232.566406 729.121094 237.421875 732.839844 241.914062 C 733.863281 243.152344 734.722656 244.398438 735.421875 245.660156 C 735.480469 245.773438 735.621094 245.8125 735.730469 245.753906 C 735.75 245.742188 735.769531 245.730469 735.78125 245.71875 C 736.75 244.761719 737.625 243.65625 738.398438 242.398438 C 738.5 242.230469 738.488281 242.023438 738.371094 241.871094 C 737.632812 240.9375 736.824219 240.082031 735.945312 239.304688 C 730.957031 234.910156 726.277344 231.304688 721.910156 228.492188 Z M 711.859375 233.425781 C 711.910156 233.402344 711.867188 233.191406 711.765625 232.953125 C 711.660156 232.71875 711.535156 232.546875 711.480469 232.566406 C 711.429688 232.589844 711.472656 232.804688 711.574219 233.039062 C 711.679688 233.277344 711.804688 233.453125 711.859375 233.425781 Z M 712.566406 246.917969 C 712.6875 246.269531 712.691406 245.671875 712.59375 245.125 C 712.011719 241.828125 711.398438 238.75 710.761719 235.898438 C 710.648438 235.382812 710.585938 235.390625 710.574219 235.917969 C 710.464844 241.222656 709.957031 246.535156 709.039062 251.855469 C 708.996094 252.105469 709.0625 252.136719 709.234375 251.953125 C 710.453125 250.675781 712.261719 248.664062 712.566406 246.917969 Z M 699.390625 312.484375 C 698.179688 304.207031 698.539062 295.375 701.007812 287.878906 C 701.691406 285.816406 702.625 283.53125 703.824219 281.007812 C 705.070312 278.394531 706.15625 275.871094 707.078125 273.429688 C 707.773438 271.59375 708.613281 268.757812 707.851562 266.863281 C 707.144531 265.117188 705.976562 263.566406 704.34375 262.222656 C 701.789062 260.109375 699.425781 260.074219 697.253906 262.121094 C 697.148438 262.21875 697.089844 262.359375 697.101562 262.503906 C 697.109375 262.632812 697.152344 262.75 697.234375 262.855469 C 697.367188 263.019531 697.425781 263.214844 697.410156 263.425781 C 697.207031 266.3125 696.980469 270.804688 696.738281 276.910156 C 696.378906 286.097656 696.59375 294.65625 697.390625 302.589844 C 697.582031 304.507812 697.945312 306.78125 698.472656 309.414062 C 698.914062 311.59375 699.300781 313.867188 699.632812 316.230469 C 699.726562 316.886719 699.761719 316.882812 699.734375 316.21875 C 699.6875 314.984375 699.574219 313.738281 699.390625 312.484375 Z M 711.441406 296.535156 C 710.292969 298.867188 709.109375 301.191406 707.890625 303.515625 C 706.78125 305.621094 705.304688 308.777344 703.453125 312.988281 C 702.378906 315.441406 702.132812 317.90625 702.714844 320.378906 C 702.738281 320.484375 702.839844 320.550781 702.945312 320.527344 C 702.980469 320.519531 703.011719 320.5 703.039062 320.472656 C 703.84375 319.6875 704.742188 318.867188 705.292969 317.855469 C 706.585938 315.472656 708.539062 312.605469 711.144531 309.253906 C 715.386719 303.796875 719.40625 299.554688 723.207031 296.523438 C 723.925781 295.949219 724.554688 295.277344 725.089844 294.507812 C 726.972656 291.804688 729.460938 288.730469 729.140625 285.203125 C 728.839844 281.808594 724.941406 280.773438 722.117188 280.644531 C 721.976562 280.640625 721.863281 280.695312 721.785156 280.8125 C 720.339844 282.988281 718.796875 285.03125 717.164062 286.9375 C 717.136719 286.976562 717.097656 286.980469 717.058594 286.949219 L 717.054688 286.949219 C 717.023438 286.925781 717.015625 286.898438 717.035156 286.863281 C 718.15625 285.007812 719.246094 283.097656 720.3125 281.121094 C 721.640625 278.660156 722.027344 275.53125 718.90625 274.175781 C 716.433594 273.101562 713.757812 273.019531 711.113281 272.992188 C 710.914062 272.988281 710.761719 273.070312 710.648438 273.238281 C 708.796875 275.894531 706.886719 278.570312 705.378906 281.410156 C 701.878906 288.046875 700.160156 295.503906 700.234375 303.78125 C 700.257812 306.460938 700.421875 309.257812 700.738281 312.167969 C 700.859375 313.300781 701.046875 314.40625 701.308594 315.492188 C 701.363281 315.71875 701.417969 315.71875 701.480469 315.492188 C 701.785156 314.359375 702.175781 313.304688 702.644531 312.339844 C 705.207031 307.082031 708.125 301.808594 711.402344 296.519531 C 711.542969 296.296875 711.558594 296.304688 711.441406 296.535156 Z M 698.511719 317.433594 C 698.542969 317.441406 698.554688 317.425781 698.546875 317.398438 C 697.71875 313.523438 697.042969 309.765625 696.519531 306.117188 C 695.667969 300.203125 695.277344 293.84375 695.351562 287.046875 C 695.351562 286.925781 695.3125 286.816406 695.234375 286.722656 C 695.183594 286.660156 695.089844 286.648438 695.027344 286.703125 C 695.015625 286.714844 695.003906 286.726562 694.992188 286.746094 C 693.53125 289.46875 692.914062 292.425781 693.148438 295.617188 C 693.292969 297.585938 693.582031 299.613281 694.011719 301.699219 C 695.191406 307.46875 696.609375 312.675781 698.261719 317.320312 C 698.273438 317.363281 698.308594 317.390625 698.347656 317.398438 Z M 704.746094 321.066406 C 709.828125 320.394531 714.828125 319.738281 719.746094 319.101562 C 724.765625 318.453125 731.328125 317.738281 739.4375 316.957031 C 740.953125 316.8125 742.394531 316.390625 743.757812 315.703125 C 748.527344 313.289062 749.703125 305.238281 744.480469 302.488281 C 741.773438 301.066406 739 301.074219 736.152344 302.511719 C 728.746094 306.265625 720.675781 310.820312 711.945312 316.1875 C 709.535156 317.664062 707.109375 319.222656 704.667969 320.855469 C 704.382812 321.039062 704.414062 321.109375 704.746094 321.066406 Z M 717.855469 322.652344 C 719.136719 322.164062 720.179688 321.53125 720.976562 320.757812 C 721.160156 320.574219 721.164062 320.277344 720.980469 320.089844 C 720.894531 320.007812 720.78125 319.953125 720.660156 319.949219 C 720.390625 319.945312 720.132812 319.957031 719.886719 319.992188 C 714.527344 320.765625 709.128906 321.488281 703.683594 322.164062 C 703.429688 322.195312 703.191406 322.253906 702.96875 322.339844 C 702.550781 322.503906 702.558594 322.644531 702.988281 322.765625 C 704.84375 323.285156 706.585938 323.644531 708.210938 323.847656 C 711.457031 324.257812 714.667969 323.859375 717.855469 322.652344 Z M 717.855469 322.652344 " fill-opacity="1" fill-rule="nonzero"/></g></svg>