<svg width="1200" height="600" viewBox="0 0 1200 600" fill="none" xmlns="http://www.w3.org/2000/svg">
<rect width="1200" height="600" fill="#1E1E1E"/>
<path d="M612.203 315.276C612.203 315.276 643.323 251.089 693.896 264.703C693.896 264.703 676.396 305.552 639.427 328.896C639.427 328.896 645.266 385.307 590.797 385.307C590.797 385.307 584.964 351.292 590.797 342.042C590.797 342.042 579.125 367.802 573.297 367.802C567.458 367.802 584.969 336.682 584.969 336.682C584.969 336.682 562.599 372.667 525.646 359.052C488.688 345.432 513.969 289.021 531.479 292.917C531.479 292.917 518.385 273.563 527.849 262.818C527.849 262.818 519.807 213.167 539.26 215.115C558.714 217.068 593.729 283.193 595.672 314.318C595.661 314.297 599.557 322.078 612.203 315.276Z" fill="white"/>
<path d="M596.636 319.162C596.636 319.162 610.25 297.766 604.417 282.208" stroke="white" stroke-width="0.725076" stroke-miterlimit="10"/>
<path d="M592.599 326.24C592.599 326.24 603.219 303.214 619.464 299.688" stroke="white" stroke-width="0.725076" stroke-miterlimit="10"/>
</svg>
