<svg width="1200" height="600" viewBox="0 0 1200 600" fill="none" xmlns="http://www.w3.org/2000/svg">
<mask id="mask0_1_2" style="mask-type:luminance" maskUnits="userSpaceOnUse" x="34" y="48" width="1160" height="460">
<path d="M1193.33 48H34.6666V508H1193.33V48Z" fill="white"/>
</mask>
<g mask="url(#mask0_1_2)">
<path d="M1116.76 388.513C1116.76 385.904 1117.26 383.44 1118.28 381.117C1119.29 378.8 1120.66 376.779 1122.38 375.055C1124.1 373.336 1126.12 371.966 1128.44 370.951C1130.76 369.94 1133.24 369.43 1135.86 369.43C1138.6 369.43 1141.12 369.94 1143.44 370.951C1145.76 371.966 1147.78 373.336 1149.51 375.055C1151.23 376.779 1152.6 378.8 1153.61 381.117C1154.62 383.44 1155.13 385.904 1155.13 388.513C1155.13 393.987 1153.28 398.57 1149.59 402.263C1145.91 405.94 1141.33 407.784 1135.86 407.784C1133.24 407.784 1130.76 407.274 1128.44 406.263C1126.12 405.263 1124.1 403.904 1122.38 402.18C1120.66 400.445 1119.29 398.419 1118.28 396.096C1117.26 393.779 1116.76 391.253 1116.76 388.513Z" fill="#927F6D"/>
<path d="M904.574 351.596C904.574 342.195 906.501 334.05 910.366 327.159C914.225 320.258 919.366 314.367 925.783 309.492C932.21 304.617 939.533 300.669 947.741 297.638C955.949 294.596 964.449 292.216 973.241 290.492C982.043 288.774 990.725 287.586 999.283 286.93C1007.85 286.263 1015.7 285.878 1022.85 285.763V276.659C1022.85 268.815 1021.83 262.034 1019.8 256.326C1017.79 250.617 1014.93 245.888 1011.24 242.138C1007.56 238.388 1003.13 235.596 997.949 233.763C992.783 231.919 987.106 230.992 980.928 230.992C976.647 230.992 972.428 231.357 968.262 232.076C964.095 232.784 959.783 233.971 955.324 235.638C950.866 237.294 946.163 239.55 941.22 242.409C936.288 245.258 930.97 248.883 925.262 253.284L923.47 252.221L935.616 227.055C939.533 225.279 943.392 223.826 947.199 222.701C951.001 221.565 954.871 220.638 958.803 219.93C962.731 219.221 966.746 218.721 970.845 218.43C974.939 218.128 979.251 217.971 983.783 217.971C996.267 217.971 1006.94 219.487 1015.8 222.513C1024.66 225.544 1031.92 229.711 1037.57 235.013C1043.23 240.305 1047.36 246.492 1049.97 253.576C1052.58 260.649 1053.89 268.221 1053.89 276.305V334.471C1053.89 344.586 1054.03 353.419 1054.32 360.971C1054.63 368.513 1054.99 375.024 1055.41 380.492C1055.82 385.966 1056.36 390.55 1057.01 394.242C1057.66 397.925 1058.35 401.013 1059.07 403.513V404.221H1019.64V403.513C1020.23 401.612 1020.68 399.471 1020.97 397.096C1021.27 394.711 1021.54 391.846 1021.78 388.513C1019.28 390.669 1016.33 392.878 1012.95 395.138C1009.56 397.388 1005.69 399.44 1001.35 401.284C997.012 403.117 992.199 404.596 986.908 405.721C981.616 406.857 975.814 407.43 969.512 407.43C948.814 407.43 932.814 402.586 921.512 392.888C910.22 383.195 904.574 369.43 904.574 351.596ZM1022.85 299.68C1012.02 299.794 1001.62 300.419 991.616 301.555C981.626 302.68 972.803 305.029 965.137 308.596C957.47 312.169 951.345 317.253 946.762 323.846C942.178 330.445 939.887 339.216 939.887 350.159C939.887 364.201 943.392 374.909 950.408 382.284C957.434 389.659 967.126 393.346 979.491 393.346C985.199 393.346 990.397 392.544 995.095 390.93C999.803 389.32 1003.97 387.3 1007.6 384.867C1011.22 382.425 1014.28 379.753 1016.78 376.846C1019.28 373.93 1021.18 371.107 1022.49 368.367C1022.73 363.841 1022.85 358.815 1022.85 353.284C1022.85 347.758 1022.85 341.487 1022.85 334.471V299.68Z" fill="#927F6D"/>
<path d="M813.505 291.284C813.505 281.175 813.349 272.346 813.046 264.805C812.755 257.253 812.401 250.737 811.984 245.263C811.567 239.794 811.031 235.216 810.38 231.534C809.724 227.841 809.046 224.742 808.338 222.242V221.534H849.546V222.242C848.838 224.742 848.182 227.841 847.588 231.534C846.989 235.216 846.448 239.794 845.963 245.263C845.489 250.737 845.135 257.253 844.901 264.805C844.661 272.346 844.546 281.175 844.546 291.284V334.471C844.546 344.586 844.661 353.419 844.901 360.971C845.135 368.513 845.489 375.024 845.963 380.492C846.448 385.966 846.989 390.55 847.588 394.242C848.182 397.925 848.838 401.013 849.546 403.513V404.221H808.338V403.513C809.046 401.013 809.724 397.925 810.38 394.242C811.031 390.55 811.567 385.966 811.984 380.492C812.401 375.024 812.755 368.513 813.046 360.971C813.349 353.419 813.505 344.586 813.505 334.471V291.284ZM809.755 167.471C809.755 164.862 810.26 162.399 811.276 160.076C812.286 157.758 813.63 155.737 815.296 154.013C816.963 152.294 818.953 150.925 821.276 149.909C823.593 148.899 826.119 148.388 828.859 148.388C831.593 148.388 834.119 148.899 836.442 149.909C838.76 150.925 840.781 152.294 842.505 154.013C844.224 155.737 845.588 157.758 846.588 160.076C847.599 162.399 848.109 164.862 848.109 167.471C848.109 172.945 846.265 177.529 842.588 181.221C838.906 184.904 834.328 186.742 828.859 186.742C826.119 186.742 823.593 186.242 821.276 185.242C818.953 184.232 816.963 182.862 815.296 181.138C813.63 179.404 812.286 177.378 811.276 175.055C810.26 172.737 809.755 170.211 809.755 167.471Z" fill="#927F6D"/>
<path d="M718.528 393.701C722.095 393.701 725.632 393.05 729.132 391.742C732.642 390.425 736.033 388.638 739.299 386.388C742.575 384.128 745.726 381.534 748.757 378.617C751.799 375.701 754.621 372.638 757.236 369.43L759.028 370.326L747.424 399.055C745.991 399.763 744.236 400.628 742.153 401.638C740.08 402.654 737.59 403.607 734.674 404.492C731.757 405.378 728.33 406.149 724.403 406.805C720.486 407.456 715.845 407.784 710.486 407.784C694.554 407.784 682.158 403.482 673.299 394.867C664.434 386.242 660.007 372.774 660.007 354.451V235.451L630.028 236.513V220.826C633.72 221.065 638.121 221.242 643.236 221.367C648.345 221.482 653.934 221.534 660.007 221.534C659.882 213.091 659.674 205.633 659.382 199.159C659.09 192.675 658.736 187.024 658.319 182.201C657.903 177.383 657.392 173.305 656.799 169.971C656.2 166.638 655.601 163.846 655.007 161.596V160.867H696.215V161.596C695.507 163.846 694.851 166.638 694.257 169.971C693.658 173.305 693.153 177.357 692.736 182.117C692.319 186.867 691.965 192.487 691.674 198.971C691.382 205.445 691.174 212.966 691.049 221.534C698.533 221.409 705.871 221.263 713.069 221.096C720.278 220.919 726.819 220.68 732.694 220.388C738.58 220.086 743.575 219.784 747.674 219.492C751.783 219.19 754.496 218.919 755.819 218.68L752.59 236.867C746.533 236.758 740.174 236.586 733.507 236.346C727.799 236.112 721.257 235.94 713.882 235.826C706.507 235.701 698.892 235.576 691.049 235.451V358.201C691.049 365.576 691.845 371.555 693.444 376.138C695.054 380.711 697.137 384.305 699.694 386.93C702.246 389.544 705.158 391.326 708.424 392.284C711.7 393.232 715.069 393.701 718.528 393.701Z" fill="#927F6D"/>
<path d="M586.954 257.388L584.475 257.742C583.642 255.008 582.298 252.096 580.454 249.013C578.605 245.919 576.225 243.065 573.308 240.451C570.402 237.826 566.897 235.654 562.788 233.93C558.689 232.211 553.959 231.346 548.6 231.346C544.918 231.346 541.439 231.883 538.163 232.951C534.897 234.024 532.043 235.596 529.6 237.68C527.168 239.763 525.235 242.357 523.808 245.451C522.376 248.534 521.663 252.159 521.663 256.326C521.663 262.149 523.475 267.711 527.1 273.013C530.735 278.305 535.288 283.544 540.746 288.721C546.215 293.888 552.131 299.091 558.496 304.326C564.871 309.55 570.793 315.013 576.267 320.721C581.735 326.43 586.288 332.529 589.913 339.013C593.538 345.503 595.35 352.487 595.35 359.971C595.35 366.044 594.277 371.966 592.142 377.742C590.001 383.508 586.694 388.649 582.225 393.159C577.767 397.675 572.058 401.336 565.1 404.138C558.142 406.93 549.85 408.326 540.225 408.326C534.517 408.326 529.189 407.789 524.246 406.721C519.314 405.649 514.793 404.315 510.683 402.721C506.584 401.112 502.897 399.326 499.621 397.367C496.355 395.399 493.475 393.524 490.975 391.742L492.767 357.826H495.621C496.814 363.425 498.6 368.544 500.975 373.18C503.35 377.82 506.288 381.779 509.788 385.055C513.298 388.32 517.314 390.878 521.829 392.721C526.355 394.555 531.298 395.471 536.663 395.471C545.454 395.471 552.433 393.034 557.6 388.159C562.777 383.284 565.371 376.925 565.371 369.076C565.371 362.774 563.61 356.971 560.1 351.68C556.6 346.388 552.168 341.305 546.808 336.43C541.459 331.555 535.725 326.68 529.6 321.805C523.475 316.93 517.735 311.732 512.392 306.201C507.043 300.659 502.61 294.591 499.1 287.992C495.584 281.399 493.829 273.878 493.829 265.43C493.829 258.529 495.105 252.195 497.663 246.43C500.23 240.654 503.798 235.716 508.371 231.617C512.954 227.508 518.397 224.326 524.704 222.076C531.006 219.815 537.902 218.68 545.392 218.68C555.267 218.68 563.501 219.721 570.1 221.805C576.694 223.888 581.725 225.883 585.183 227.784L586.954 257.388Z" fill="#927F6D"/>
<path d="M369.944 407.43C356.746 407.43 344.381 405.352 332.839 401.201C321.298 397.034 311.24 390.94 302.673 382.909C294.115 374.883 287.365 364.951 282.423 353.117C277.49 341.274 275.027 327.737 275.027 312.513C275.027 299.086 277.282 286.633 281.798 275.159C286.324 263.675 292.574 253.711 300.548 245.263C308.516 236.82 317.824 230.221 328.464 225.471C339.115 220.711 350.621 218.326 362.985 218.326C375.235 218.326 386.589 220.44 397.048 224.659C407.516 228.883 416.589 235.008 424.256 243.034C431.933 251.065 438.006 260.992 442.464 272.826C446.923 284.659 449.329 298.133 449.694 313.242C436.246 312.992 422.803 312.815 409.36 312.701C395.928 312.576 381.954 312.513 367.444 312.513C357.095 312.513 347.011 312.576 337.194 312.701C327.386 312.815 318.558 312.992 310.714 313.242C311.433 325.607 313.365 336.784 316.506 346.784C319.657 356.774 323.996 365.305 329.527 372.388C335.069 379.461 341.787 384.899 349.694 388.701C357.61 392.508 366.558 394.409 376.548 394.409C383.449 394.409 389.964 393.612 396.089 392.013C402.214 390.404 407.766 388.175 412.756 385.326C417.756 382.466 422.214 379.107 426.131 375.242C430.058 371.367 433.391 367.175 436.131 362.659L438.277 363.721L425.069 395.471C418.652 398.805 410.975 401.633 402.048 403.951C393.131 406.268 382.428 407.43 369.944 407.43ZM346.214 298.596C358.115 298.596 370.037 298.57 381.985 298.513C393.944 298.461 404.798 298.253 414.548 297.888C413.475 287.544 411.454 278.263 408.485 270.055C405.511 261.846 401.704 254.888 397.069 249.18C392.428 243.471 386.954 239.076 380.652 235.992C374.345 232.899 367.386 231.346 359.777 231.346C352.871 231.346 346.537 232.867 340.777 235.909C335.011 238.94 329.985 243.305 325.694 249.013C321.412 254.721 317.964 261.711 315.339 269.971C312.725 278.237 311.183 287.659 310.714 298.242C316.058 298.482 321.704 298.596 327.652 298.596C333.61 298.596 339.798 298.596 346.214 298.596Z" fill="#927F6D"/>
<path d="M186.998 283.971C186.998 268.279 183.842 256.742 177.54 249.367C171.248 241.992 162.811 238.305 152.227 238.305C148.42 238.305 144.134 239.112 139.373 240.721C134.607 242.32 129.727 244.461 124.727 247.138C119.738 249.82 114.748 252.945 109.748 256.513C104.759 260.07 100.066 263.878 95.6648 267.93L95.3106 291.284V334.471C95.3106 344.586 95.4252 353.419 95.6648 360.971C95.8991 368.513 96.2533 375.024 96.7273 380.492C97.2116 385.966 97.7481 390.55 98.3314 394.242C98.9252 397.925 99.5866 401.013 100.311 403.513V404.221H59.0814V403.513C59.8002 401.013 60.4877 397.925 61.1439 394.242C61.795 390.55 62.3314 385.966 62.7481 380.492C63.1648 375.024 63.5189 368.513 63.8106 360.971C64.1127 353.419 64.2689 344.586 64.2689 334.471V291.284C64.2689 281.175 64.1127 272.346 63.8106 264.805C63.5189 257.253 63.1648 250.737 62.7481 245.263C62.3314 239.794 61.795 235.216 61.1439 231.534C60.4877 227.841 59.8002 224.742 59.0814 222.242V221.534H100.311V222.242C99.3523 225.216 98.6023 228.992 98.0606 233.576C97.5293 238.159 96.9668 244.138 96.3731 251.513C101.248 247.471 106.509 243.43 112.165 239.388C117.816 235.336 123.67 231.732 129.727 228.576C135.795 225.425 141.982 222.867 148.29 220.909C154.592 218.951 160.779 217.971 166.852 217.971C176.128 217.971 184.003 219.576 190.477 222.784C196.962 225.992 202.253 230.216 206.352 235.451C210.462 240.69 213.436 246.669 215.269 253.388C217.113 260.096 218.04 266.904 218.04 273.805V334.471C218.04 344.586 218.154 353.419 218.394 360.971C218.644 368.513 219.003 375.024 219.477 380.492C219.946 385.966 220.482 390.55 221.081 394.242C221.675 397.925 222.331 401.013 223.04 403.513V404.221H181.831V403.513C182.54 401.013 183.217 397.925 183.873 394.242C184.54 390.55 185.081 385.966 185.498 380.492C185.915 375.024 186.269 368.513 186.561 360.971C186.852 353.419 186.998 344.586 186.998 334.471V283.971Z" fill="#927F6D"/>
</g>
<circle cx="829" cy="167" r="17" fill="#D9D9D9"/>
<circle cx="1136" cy="389" r="17" fill="#D9D9D9"/>
</svg>
