<svg width="1200" height="600" viewBox="0 0 1200 600" fill="none" xmlns="http://www.w3.org/2000/svg">
<path d="M933 239.5C949.167 230.667 986.5 215.9 1006.5 227.5C1031.5 242 1042 255.5 1039.5 272.5C1037 289.5 1027 294.1 1019.5 293.5C1000.5 291.98 977.5 295.5 961.5 301C944.308 306.91 928.899 312.978 919.5 340C915.5 351.5 915 373 937 388.5C954.39 400.752 980 402 994 399.5C1004.14 397.69 1015 388.5 1023 380.5C1030.04 373.455 1035 353.5 1035 335.5C1035 313.855 1031.5 311.5 1035 304.5C1040.22 294.06 1050.5 296.5 1047.5 332.5C1045.1 361.3 1041.17 386 1039.5 393.5" stroke="#BBFEA2" stroke-width="7" stroke-linecap="round"/>
<path d="M827.5 225V399" stroke="#BBFEA2" stroke-width="7" stroke-linecap="round"/>
<path d="M633 229.5H748" stroke="#BBFEA2" stroke-width="7" stroke-linecap="round"/>
<path d="M673.5 165V368.5C673.5 386.5 692 401.036 699.5 400.5C720.5 399 734.5 403 748 390.5" stroke="#BBFEA2" stroke-width="7" stroke-linecap="round"/>
<path d="M581.5 238.5C566.333 226.667 522.613 211.764 510.5 247C499.5 279 523 295 543 314.5C561.619 332.654 584.5 346 581.5 366C578.5 386 561.5 400.5 550.5 401.5C539.5 402.5 505.5 400 495 384.5" stroke="#BBFEA2" stroke-width="7" stroke-linecap="round"/>
<path d="M319 306.5H413C420 307.167 433.8 305.7 433 294.5C432 280.5 413.5 225 361.5 224.5C319.9 224.1 296.5 272.333 290 296.5C287.667 316.833 288.7 361.8 311.5 379C340 400.5 363.5 403 373 402C382.5 401 406.5 400.5 423.5 386.5" stroke="#BBFEA2" stroke-width="7" stroke-linecap="round"/>
<path d="M77.5 396.5L72.5 242.5C72.5 238.167 74 229.8 80 231C87.5 232.5 80 251.5 85 257.5C90 263.5 101.906 253.81 105.5 251.5C112.5 247 146.493 228.5 165.5 228.5C185 228.5 202 249.5 202.5 266.5C202.9 280.1 202.667 356 202.5 396.5" stroke="#BBFEA2" stroke-width="7" stroke-linecap="round"/>
</svg>
