<svg xmlns="http://www.w3.org/2000/svg" xmlns:xlink="http://www.w3.org/1999/xlink" width="1200" zoomAndPan="magnify" viewBox="0 0 900 449.999984" height="600" preserveAspectRatio="xMidYMid meet" version="1.0"><defs><g/></defs><g fill="#927f6d" fill-opacity="1"><g transform="translate(25.390838, 230.873946)"><g><path d="M 4.59375 -18.859375 C 4.59375 -20.546875 4.566406 -22.019531 4.515625 -23.28125 C 4.460938 -24.539062 4.398438 -25.625 4.328125 -26.53125 C 4.265625 -27.445312 4.175781 -28.210938 4.0625 -28.828125 C 3.957031 -29.441406 3.84375 -29.957031 3.71875 -30.375 L 3.71875 -30.5 L 10.609375 -30.5 L 10.609375 -30.375 C 10.441406 -29.925781 10.300781 -29.375 10.1875 -28.71875 C 10.082031 -28.0625 10.003906 -27.21875 9.953125 -26.1875 C 10.679688 -26.800781 11.441406 -27.40625 12.234375 -28 C 13.035156 -28.59375 13.851562 -29.117188 14.6875 -29.578125 C 15.519531 -30.035156 16.367188 -30.398438 17.234375 -30.671875 C 18.097656 -30.953125 18.96875 -31.09375 19.84375 -31.09375 C 20.375 -31.09375 20.835938 -31.066406 21.234375 -31.015625 C 21.628906 -30.972656 21.984375 -30.90625 22.296875 -30.8125 C 22.617188 -30.71875 22.910156 -30.613281 23.171875 -30.5 C 23.429688 -30.394531 23.679688 -30.296875 23.921875 -30.203125 L 22.453125 -24.515625 L 21.953125 -24.625 C 21.710938 -25.5 21.265625 -26.195312 20.609375 -26.71875 C 19.953125 -27.25 19.0625 -27.515625 17.9375 -27.515625 C 17.3125 -27.515625 16.660156 -27.40625 15.984375 -27.1875 C 15.316406 -26.96875 14.632812 -26.664062 13.9375 -26.28125 C 13.238281 -25.894531 12.539062 -25.445312 11.84375 -24.9375 C 11.15625 -24.4375 10.484375 -23.910156 9.828125 -23.359375 C 9.785156 -22.773438 9.765625 -22.144531 9.765625 -21.46875 C 9.765625 -20.800781 9.765625 -20.085938 9.765625 -19.328125 L 9.765625 -11.640625 C 9.765625 -9.953125 9.785156 -8.476562 9.828125 -7.21875 C 9.867188 -5.957031 9.925781 -4.867188 10 -3.953125 C 10.082031 -3.046875 10.171875 -2.285156 10.265625 -1.671875 C 10.367188 -1.054688 10.484375 -0.539062 10.609375 -0.125 L 10.609375 0 L 3.71875 0 L 3.71875 -0.125 C 3.84375 -0.539062 3.957031 -1.054688 4.0625 -1.671875 C 4.175781 -2.285156 4.265625 -3.046875 4.328125 -3.953125 C 4.398438 -4.867188 4.460938 -5.957031 4.515625 -7.21875 C 4.566406 -8.476562 4.59375 -9.953125 4.59375 -11.640625 Z M 4.59375 -18.859375 "/></g></g></g><g fill="#927f6d" fill-opacity="1"><g transform="translate(58.45673, 230.873946)"><g><path d="M 17.9375 0.53125 C 15.726562 0.53125 13.660156 0.1875 11.734375 -0.5 C 9.804688 -1.195312 8.128906 -2.210938 6.703125 -3.546875 C 5.273438 -4.890625 4.144531 -6.550781 3.3125 -8.53125 C 2.488281 -10.507812 2.078125 -12.769531 2.078125 -15.3125 C 2.078125 -17.550781 2.453125 -19.628906 3.203125 -21.546875 C 3.960938 -23.460938 5.007812 -25.125 6.34375 -26.53125 C 7.675781 -27.945312 9.226562 -29.050781 11 -29.84375 C 12.78125 -30.632812 14.703125 -31.03125 16.765625 -31.03125 C 18.816406 -31.03125 20.710938 -30.675781 22.453125 -29.96875 C 24.203125 -29.269531 25.71875 -28.25 27 -26.90625 C 28.28125 -25.570312 29.289062 -23.914062 30.03125 -21.9375 C 30.78125 -19.957031 31.1875 -17.707031 31.25 -15.1875 C 29 -15.226562 26.75 -15.257812 24.5 -15.28125 C 22.257812 -15.300781 19.929688 -15.3125 17.515625 -15.3125 C 15.785156 -15.3125 14.101562 -15.300781 12.46875 -15.28125 C 10.832031 -15.257812 9.359375 -15.226562 8.046875 -15.1875 C 8.160156 -13.125 8.476562 -11.257812 9 -9.59375 C 9.53125 -7.925781 10.253906 -6.5 11.171875 -5.3125 C 12.097656 -4.132812 13.222656 -3.226562 14.546875 -2.59375 C 15.867188 -1.957031 17.363281 -1.640625 19.03125 -1.640625 C 20.1875 -1.640625 21.273438 -1.769531 22.296875 -2.03125 C 23.316406 -2.300781 24.242188 -2.675781 25.078125 -3.15625 C 25.910156 -3.632812 26.65625 -4.195312 27.3125 -4.84375 C 27.96875 -5.488281 28.523438 -6.1875 28.984375 -6.9375 L 29.34375 -6.765625 L 27.140625 -1.453125 C 26.066406 -0.898438 24.785156 -0.429688 23.296875 -0.046875 C 21.804688 0.335938 20.019531 0.53125 17.9375 0.53125 Z M 13.96875 -17.640625 C 15.957031 -17.640625 17.945312 -17.640625 19.9375 -17.640625 C 21.9375 -17.648438 23.75 -17.6875 25.375 -17.75 C 25.195312 -19.476562 24.859375 -21.023438 24.359375 -22.390625 C 23.867188 -23.765625 23.234375 -24.925781 22.453125 -25.875 C 21.679688 -26.832031 20.769531 -27.566406 19.71875 -28.078125 C 18.664062 -28.597656 17.503906 -28.859375 16.234375 -28.859375 C 15.078125 -28.859375 14.015625 -28.601562 13.046875 -28.09375 C 12.085938 -27.59375 11.25 -26.863281 10.53125 -25.90625 C 9.820312 -24.957031 9.25 -23.789062 8.8125 -22.40625 C 8.375 -21.03125 8.117188 -19.457031 8.046875 -17.6875 C 8.929688 -17.65625 9.867188 -17.640625 10.859375 -17.640625 C 11.859375 -17.640625 12.894531 -17.640625 13.96875 -17.640625 Z M 13.96875 -17.640625 "/></g></g></g><g fill="#927f6d" fill-opacity="1"><g transform="translate(100.666073, 230.873946)"><g><path d="M 4.765625 -32.890625 C 4.765625 -34.578125 4.738281 -36.050781 4.6875 -37.3125 C 4.632812 -38.570312 4.570312 -39.65625 4.5 -40.5625 C 4.4375 -41.476562 4.347656 -42.242188 4.234375 -42.859375 C 4.128906 -43.472656 4.019531 -43.988281 3.90625 -44.40625 L 3.90625 -44.53125 L 10.78125 -44.53125 L 10.78125 -44.40625 C 10.664062 -43.988281 10.554688 -43.472656 10.453125 -42.859375 C 10.359375 -42.242188 10.269531 -41.476562 10.1875 -40.5625 C 10.101562 -39.65625 10.039062 -38.570312 10 -37.3125 C 9.96875 -36.050781 9.953125 -34.578125 9.953125 -32.890625 L 9.953125 -11.640625 C 9.953125 -9.953125 9.96875 -8.476562 10 -7.21875 C 10.039062 -5.957031 10.101562 -4.867188 10.1875 -3.953125 C 10.269531 -3.046875 10.359375 -2.285156 10.453125 -1.671875 C 10.554688 -1.054688 10.664062 -0.539062 10.78125 -0.125 L 10.78125 0 L 3.90625 0 L 3.90625 -0.125 C 4.019531 -0.539062 4.128906 -1.054688 4.234375 -1.671875 C 4.347656 -2.285156 4.4375 -3.046875 4.5 -3.953125 C 4.570312 -4.867188 4.632812 -5.957031 4.6875 -7.21875 C 4.738281 -8.476562 4.765625 -9.953125 4.765625 -11.640625 Z M 4.765625 -32.890625 "/></g></g></g><g fill="#927f6d" fill-opacity="1"><g transform="translate(124.528937, 230.873946)"><g><path d="M 2.203125 -8.78125 C 2.203125 -10.351562 2.523438 -11.710938 3.171875 -12.859375 C 3.816406 -14.015625 4.675781 -15 5.75 -15.8125 C 6.820312 -16.625 8.039062 -17.285156 9.40625 -17.796875 C 10.78125 -18.304688 12.203125 -18.703125 13.671875 -18.984375 C 15.140625 -19.273438 16.585938 -19.472656 18.015625 -19.578125 C 19.453125 -19.691406 20.765625 -19.757812 21.953125 -19.78125 L 21.953125 -21.296875 C 21.953125 -22.609375 21.78125 -23.738281 21.4375 -24.6875 C 21.101562 -25.644531 20.628906 -26.4375 20.015625 -27.0625 C 19.398438 -27.6875 18.660156 -28.148438 17.796875 -28.453125 C 16.929688 -28.765625 15.984375 -28.921875 14.953125 -28.921875 C 14.234375 -28.921875 13.523438 -28.859375 12.828125 -28.734375 C 12.140625 -28.617188 11.421875 -28.421875 10.671875 -28.140625 C 9.929688 -27.867188 9.148438 -27.492188 8.328125 -27.015625 C 7.503906 -26.535156 6.613281 -25.929688 5.65625 -25.203125 L 5.359375 -25.375 L 7.390625 -29.578125 C 8.046875 -29.878906 8.691406 -30.125 9.328125 -30.3125 C 9.960938 -30.5 10.601562 -30.648438 11.25 -30.765625 C 11.90625 -30.890625 12.578125 -30.972656 13.265625 -31.015625 C 13.953125 -31.066406 14.671875 -31.09375 15.421875 -31.09375 C 17.515625 -31.09375 19.300781 -30.835938 20.78125 -30.328125 C 22.257812 -29.828125 23.46875 -29.132812 24.40625 -28.25 C 25.351562 -27.363281 26.046875 -26.328125 26.484375 -25.140625 C 26.921875 -23.960938 27.140625 -22.703125 27.140625 -21.359375 L 27.140625 -11.640625 C 27.140625 -9.953125 27.160156 -8.476562 27.203125 -7.21875 C 27.253906 -5.957031 27.3125 -4.867188 27.375 -3.953125 C 27.445312 -3.046875 27.535156 -2.285156 27.640625 -1.671875 C 27.753906 -1.054688 27.875 -0.539062 28 -0.125 L 28 0 L 21.421875 0 L 21.421875 -0.125 C 21.515625 -0.4375 21.585938 -0.789062 21.640625 -1.1875 C 21.691406 -1.582031 21.734375 -2.0625 21.765625 -2.625 C 21.347656 -2.257812 20.859375 -1.890625 20.296875 -1.515625 C 19.734375 -1.140625 19.085938 -0.796875 18.359375 -0.484375 C 17.640625 -0.179688 16.835938 0.0625 15.953125 0.25 C 15.066406 0.4375 14.097656 0.53125 13.046875 0.53125 C 9.585938 0.53125 6.914062 -0.273438 5.03125 -1.890625 C 3.144531 -3.503906 2.203125 -5.800781 2.203125 -8.78125 Z M 21.953125 -17.453125 C 20.140625 -17.429688 18.398438 -17.328125 16.734375 -17.140625 C 15.066406 -16.953125 13.59375 -16.5625 12.3125 -15.96875 C 11.03125 -15.375 10.007812 -14.523438 9.25 -13.421875 C 8.488281 -12.316406 8.109375 -10.851562 8.109375 -9.03125 C 8.109375 -6.6875 8.691406 -4.894531 9.859375 -3.65625 C 11.023438 -2.425781 12.644531 -1.8125 14.71875 -1.8125 C 15.664062 -1.8125 16.53125 -1.945312 17.3125 -2.21875 C 18.101562 -2.488281 18.800781 -2.828125 19.40625 -3.234375 C 20.007812 -3.640625 20.519531 -4.082031 20.9375 -4.5625 C 21.351562 -5.050781 21.671875 -5.523438 21.890625 -5.984375 C 21.929688 -6.742188 21.953125 -7.582031 21.953125 -8.5 C 21.953125 -9.425781 21.953125 -10.472656 21.953125 -11.640625 Z M 21.953125 -17.453125 "/></g></g></g><g fill="#927f6d" fill-opacity="1"><g transform="translate(165.219341, 230.873946)"><g><path d="M 14.953125 -12.8125 L 7.796875 -3.78125 C 7.546875 -3.445312 7.285156 -3.097656 7.015625 -2.734375 C 6.742188 -2.378906 6.503906 -2.03125 6.296875 -1.6875 C 6.085938 -1.351562 5.914062 -1.035156 5.78125 -0.734375 C 5.65625 -0.441406 5.59375 -0.195312 5.59375 0 L 0.59375 0 L 0.59375 -0.125 C 0.914062 -0.394531 1.359375 -0.804688 1.921875 -1.359375 C 2.484375 -1.921875 3.082031 -2.609375 3.71875 -3.421875 L 13.109375 -15.3125 L 3.90625 -27.765625 C 3.382812 -28.429688 2.875 -29.003906 2.375 -29.484375 C 1.882812 -29.960938 1.519531 -30.257812 1.28125 -30.375 L 1.28125 -30.5 L 9.4375 -30.5 C 9.4375 -30.164062 9.5625 -29.632812 9.8125 -28.90625 C 10.0625 -28.175781 10.550781 -27.304688 11.28125 -26.296875 L 16.359375 -19.390625 L 22.125 -26.71875 C 22.363281 -27.03125 22.609375 -27.363281 22.859375 -27.71875 C 23.109375 -28.082031 23.328125 -28.4375 23.515625 -28.78125 C 23.703125 -29.132812 23.851562 -29.457031 23.96875 -29.75 C 24.09375 -30.050781 24.15625 -30.300781 24.15625 -30.5 L 29.15625 -30.5 L 29.15625 -30.375 C 28.882812 -30.15625 28.535156 -29.835938 28.109375 -29.421875 C 27.691406 -29.003906 27.148438 -28.367188 26.484375 -27.515625 L 18.171875 -16.953125 L 28.171875 -3.421875 C 28.847656 -2.523438 29.472656 -1.789062 30.046875 -1.21875 C 30.628906 -0.644531 31.046875 -0.28125 31.296875 -0.125 L 31.296875 0 L 23.171875 0 C 23.171875 -0.332031 23.039062 -0.867188 22.78125 -1.609375 C 22.53125 -2.359375 22.054688 -3.222656 21.359375 -4.203125 Z M 14.953125 -12.8125 "/></g></g></g><g fill="#927f6d" fill-opacity="1"><g transform="translate(206.267144, 230.873946)"><g><path d="M 2.203125 -8.78125 C 2.203125 -10.351562 2.523438 -11.710938 3.171875 -12.859375 C 3.816406 -14.015625 4.675781 -15 5.75 -15.8125 C 6.820312 -16.625 8.039062 -17.285156 9.40625 -17.796875 C 10.78125 -18.304688 12.203125 -18.703125 13.671875 -18.984375 C 15.140625 -19.273438 16.585938 -19.472656 18.015625 -19.578125 C 19.453125 -19.691406 20.765625 -19.757812 21.953125 -19.78125 L 21.953125 -21.296875 C 21.953125 -22.609375 21.78125 -23.738281 21.4375 -24.6875 C 21.101562 -25.644531 20.628906 -26.4375 20.015625 -27.0625 C 19.398438 -27.6875 18.660156 -28.148438 17.796875 -28.453125 C 16.929688 -28.765625 15.984375 -28.921875 14.953125 -28.921875 C 14.234375 -28.921875 13.523438 -28.859375 12.828125 -28.734375 C 12.140625 -28.617188 11.421875 -28.421875 10.671875 -28.140625 C 9.929688 -27.867188 9.148438 -27.492188 8.328125 -27.015625 C 7.503906 -26.535156 6.613281 -25.929688 5.65625 -25.203125 L 5.359375 -25.375 L 7.390625 -29.578125 C 8.046875 -29.878906 8.691406 -30.125 9.328125 -30.3125 C 9.960938 -30.5 10.601562 -30.648438 11.25 -30.765625 C 11.90625 -30.890625 12.578125 -30.972656 13.265625 -31.015625 C 13.953125 -31.066406 14.671875 -31.09375 15.421875 -31.09375 C 17.515625 -31.09375 19.300781 -30.835938 20.78125 -30.328125 C 22.257812 -29.828125 23.46875 -29.132812 24.40625 -28.25 C 25.351562 -27.363281 26.046875 -26.328125 26.484375 -25.140625 C 26.921875 -23.960938 27.140625 -22.703125 27.140625 -21.359375 L 27.140625 -11.640625 C 27.140625 -9.953125 27.160156 -8.476562 27.203125 -7.21875 C 27.253906 -5.957031 27.3125 -4.867188 27.375 -3.953125 C 27.445312 -3.046875 27.535156 -2.285156 27.640625 -1.671875 C 27.753906 -1.054688 27.875 -0.539062 28 -0.125 L 28 0 L 21.421875 0 L 21.421875 -0.125 C 21.515625 -0.4375 21.585938 -0.789062 21.640625 -1.1875 C 21.691406 -1.582031 21.734375 -2.0625 21.765625 -2.625 C 21.347656 -2.257812 20.859375 -1.890625 20.296875 -1.515625 C 19.734375 -1.140625 19.085938 -0.796875 18.359375 -0.484375 C 17.640625 -0.179688 16.835938 0.0625 15.953125 0.25 C 15.066406 0.4375 14.097656 0.53125 13.046875 0.53125 C 9.585938 0.53125 6.914062 -0.273438 5.03125 -1.890625 C 3.144531 -3.503906 2.203125 -5.800781 2.203125 -8.78125 Z M 21.953125 -17.453125 C 20.140625 -17.429688 18.398438 -17.328125 16.734375 -17.140625 C 15.066406 -16.953125 13.59375 -16.5625 12.3125 -15.96875 C 11.03125 -15.375 10.007812 -14.523438 9.25 -13.421875 C 8.488281 -12.316406 8.109375 -10.851562 8.109375 -9.03125 C 8.109375 -6.6875 8.691406 -4.894531 9.859375 -3.65625 C 11.023438 -2.425781 12.644531 -1.8125 14.71875 -1.8125 C 15.664062 -1.8125 16.53125 -1.945312 17.3125 -2.21875 C 18.101562 -2.488281 18.800781 -2.828125 19.40625 -3.234375 C 20.007812 -3.640625 20.519531 -4.082031 20.9375 -4.5625 C 21.351562 -5.050781 21.671875 -5.523438 21.890625 -5.984375 C 21.929688 -6.742188 21.953125 -7.582031 21.953125 -8.5 C 21.953125 -9.425781 21.953125 -10.472656 21.953125 -11.640625 Z M 21.953125 -17.453125 "/></g></g></g><g fill="#927f6d" fill-opacity="1"><g transform="translate(246.957548, 230.873946)"><g><path d="M 15.375 -1.75 C 15.96875 -1.75 16.554688 -1.859375 17.140625 -2.078125 C 17.722656 -2.296875 18.285156 -2.59375 18.828125 -2.96875 C 19.378906 -3.351562 19.90625 -3.785156 20.40625 -4.265625 C 20.914062 -4.753906 21.390625 -5.269531 21.828125 -5.8125 L 22.125 -5.65625 L 20.1875 -0.859375 C 19.957031 -0.742188 19.664062 -0.597656 19.3125 -0.421875 C 18.96875 -0.253906 18.550781 -0.0976562 18.0625 0.046875 C 17.570312 0.191406 17 0.316406 16.34375 0.421875 C 15.695312 0.535156 14.925781 0.59375 14.03125 0.59375 C 11.363281 0.59375 9.289062 -0.125 7.8125 -1.5625 C 6.332031 -3 5.59375 -5.25 5.59375 -8.3125 L 5.59375 -28.171875 L 0.59375 -28 L 0.59375 -30.625 C 1.207031 -30.582031 1.941406 -30.550781 2.796875 -30.53125 C 3.648438 -30.507812 4.582031 -30.5 5.59375 -30.5 C 5.570312 -31.90625 5.535156 -33.148438 5.484375 -34.234375 C 5.441406 -35.316406 5.382812 -36.257812 5.3125 -37.0625 C 5.25 -37.875 5.164062 -38.554688 5.0625 -39.109375 C 4.96875 -39.660156 4.867188 -40.128906 4.765625 -40.515625 L 4.765625 -40.625 L 11.640625 -40.625 L 11.640625 -40.515625 C 11.523438 -40.128906 11.414062 -39.660156 11.3125 -39.109375 C 11.21875 -38.554688 11.132812 -37.878906 11.0625 -37.078125 C 11 -36.285156 10.941406 -35.347656 10.890625 -34.265625 C 10.835938 -33.179688 10.800781 -31.925781 10.78125 -30.5 C 12.03125 -30.519531 13.253906 -30.546875 14.453125 -30.578125 C 15.660156 -30.609375 16.753906 -30.644531 17.734375 -30.6875 C 18.722656 -30.738281 19.554688 -30.789062 20.234375 -30.84375 C 20.921875 -30.894531 21.375 -30.941406 21.59375 -30.984375 L 21.0625 -27.9375 C 20.050781 -27.957031 18.988281 -27.988281 17.875 -28.03125 C 16.914062 -28.070312 15.820312 -28.097656 14.59375 -28.109375 C 13.363281 -28.128906 12.09375 -28.148438 10.78125 -28.171875 L 10.78125 -7.6875 C 10.78125 -6.457031 10.914062 -5.457031 11.1875 -4.6875 C 11.457031 -3.925781 11.804688 -3.328125 12.234375 -2.890625 C 12.660156 -2.453125 13.144531 -2.148438 13.6875 -1.984375 C 14.226562 -1.828125 14.789062 -1.75 15.375 -1.75 Z M 15.375 -1.75 "/></g></g></g><g fill="#927f6d" fill-opacity="1"><g transform="translate(279.517131, 230.873946)"><g><path d="M 4.765625 -18.859375 C 4.765625 -20.546875 4.738281 -22.019531 4.6875 -23.28125 C 4.632812 -24.539062 4.570312 -25.625 4.5 -26.53125 C 4.4375 -27.445312 4.347656 -28.210938 4.234375 -28.828125 C 4.128906 -29.441406 4.019531 -29.957031 3.90625 -30.375 L 3.90625 -30.5 L 10.78125 -30.5 L 10.78125 -30.375 C 10.664062 -29.957031 10.554688 -29.441406 10.453125 -28.828125 C 10.359375 -28.210938 10.269531 -27.445312 10.1875 -26.53125 C 10.101562 -25.625 10.039062 -24.539062 10 -23.28125 C 9.96875 -22.019531 9.953125 -20.546875 9.953125 -18.859375 L 9.953125 -11.640625 C 9.953125 -9.953125 9.96875 -8.476562 10 -7.21875 C 10.039062 -5.957031 10.101562 -4.867188 10.1875 -3.953125 C 10.269531 -3.046875 10.359375 -2.285156 10.453125 -1.671875 C 10.554688 -1.054688 10.664062 -0.539062 10.78125 -0.125 L 10.78125 0 L 3.90625 0 L 3.90625 -0.125 C 4.019531 -0.539062 4.128906 -1.054688 4.234375 -1.671875 C 4.347656 -2.285156 4.4375 -3.046875 4.5 -3.953125 C 4.570312 -4.867188 4.632812 -5.957031 4.6875 -7.21875 C 4.738281 -8.476562 4.765625 -9.953125 4.765625 -11.640625 Z M 4.140625 -39.53125 C 4.140625 -39.96875 4.222656 -40.378906 4.390625 -40.765625 C 4.554688 -41.148438 4.78125 -41.484375 5.0625 -41.765625 C 5.34375 -42.054688 5.675781 -42.285156 6.0625 -42.453125 C 6.445312 -42.628906 6.867188 -42.71875 7.328125 -42.71875 C 7.785156 -42.71875 8.207031 -42.628906 8.59375 -42.453125 C 8.976562 -42.285156 9.3125 -42.054688 9.59375 -41.765625 C 9.882812 -41.484375 10.113281 -41.148438 10.28125 -40.765625 C 10.457031 -40.378906 10.546875 -39.96875 10.546875 -39.53125 C 10.546875 -38.613281 10.238281 -37.847656 9.625 -37.234375 C 9.007812 -36.617188 8.242188 -36.3125 7.328125 -36.3125 C 6.867188 -36.3125 6.445312 -36.394531 6.0625 -36.5625 C 5.675781 -36.726562 5.34375 -36.953125 5.0625 -37.234375 C 4.78125 -37.523438 4.554688 -37.863281 4.390625 -38.25 C 4.222656 -38.644531 4.140625 -39.070312 4.140625 -39.53125 Z M 4.140625 -39.53125 "/></g></g></g><g fill="#927f6d" fill-opacity="1"><g transform="translate(303.379983, 230.873946)"><g><path d="M 2.078125 -15.3125 C 2.078125 -17.550781 2.492188 -19.628906 3.328125 -21.546875 C 4.171875 -23.460938 5.320312 -25.125 6.78125 -26.53125 C 8.238281 -27.945312 9.957031 -29.050781 11.9375 -29.84375 C 13.925781 -30.632812 16.0625 -31.03125 18.34375 -31.03125 C 20.59375 -31.03125 22.703125 -30.65625 24.671875 -29.90625 C 26.648438 -29.164062 28.375 -28.109375 29.84375 -26.734375 C 31.3125 -25.367188 32.46875 -23.703125 33.3125 -21.734375 C 34.15625 -19.773438 34.578125 -17.570312 34.578125 -15.125 C 34.578125 -13.082031 34.21875 -11.117188 33.5 -9.234375 C 32.789062 -7.347656 31.738281 -5.679688 30.34375 -4.234375 C 28.957031 -2.785156 27.253906 -1.628906 25.234375 -0.765625 C 23.222656 0.0976562 20.90625 0.53125 18.28125 0.53125 C 16.0625 0.53125 13.96875 0.164062 12 -0.5625 C 10.039062 -1.300781 8.320312 -2.351562 6.84375 -3.71875 C 5.375 -5.09375 4.210938 -6.753906 3.359375 -8.703125 C 2.503906 -10.660156 2.078125 -12.863281 2.078125 -15.3125 Z M 18.96875 -1.640625 C 20.382812 -1.640625 21.679688 -1.914062 22.859375 -2.46875 C 24.035156 -3.03125 25.050781 -3.835938 25.90625 -4.890625 C 26.757812 -5.941406 27.425781 -7.21875 27.90625 -8.71875 C 28.382812 -10.226562 28.625 -11.9375 28.625 -13.84375 C 28.625 -15.988281 28.394531 -17.976562 27.9375 -19.8125 C 27.476562 -21.65625 26.796875 -23.242188 25.890625 -24.578125 C 24.992188 -25.921875 23.859375 -26.96875 22.484375 -27.71875 C 21.117188 -28.476562 19.519531 -28.859375 17.6875 -28.859375 C 16.28125 -28.859375 14.988281 -28.582031 13.8125 -28.03125 C 12.644531 -27.488281 11.628906 -26.703125 10.765625 -25.671875 C 9.898438 -24.640625 9.226562 -23.375 8.75 -21.875 C 8.28125 -20.375 8.046875 -18.671875 8.046875 -16.765625 C 8.046875 -14.617188 8.273438 -12.625 8.734375 -10.78125 C 9.203125 -8.9375 9.894531 -7.332031 10.8125 -5.96875 C 11.726562 -4.613281 12.863281 -3.550781 14.21875 -2.78125 C 15.582031 -2.019531 17.164062 -1.640625 18.96875 -1.640625 Z M 18.96875 -1.640625 "/></g></g></g><g fill="#927f6d" fill-opacity="1"><g transform="translate(349.193105, 230.873946)"><g><path d="M 25.078125 -20.078125 C 25.078125 -22.691406 24.550781 -24.613281 23.5 -25.84375 C 22.445312 -27.082031 21.035156 -27.703125 19.265625 -27.703125 C 18.628906 -27.703125 17.914062 -27.566406 17.125 -27.296875 C 16.332031 -27.023438 15.519531 -26.664062 14.6875 -26.21875 C 13.851562 -25.78125 13.019531 -25.257812 12.1875 -24.65625 C 11.351562 -24.0625 10.566406 -23.425781 9.828125 -22.75 L 9.765625 -18.859375 L 9.765625 -11.640625 C 9.765625 -9.953125 9.785156 -8.476562 9.828125 -7.21875 C 9.867188 -5.957031 9.925781 -4.867188 10 -3.953125 C 10.082031 -3.046875 10.171875 -2.285156 10.265625 -1.671875 C 10.367188 -1.054688 10.484375 -0.539062 10.609375 -0.125 L 10.609375 0 L 3.71875 0 L 3.71875 -0.125 C 3.84375 -0.539062 3.957031 -1.054688 4.0625 -1.671875 C 4.175781 -2.285156 4.265625 -3.046875 4.328125 -3.953125 C 4.398438 -4.867188 4.460938 -5.957031 4.515625 -7.21875 C 4.566406 -8.476562 4.59375 -9.953125 4.59375 -11.640625 L 4.59375 -18.859375 C 4.59375 -20.546875 4.566406 -22.019531 4.515625 -23.28125 C 4.460938 -24.539062 4.398438 -25.625 4.328125 -26.53125 C 4.265625 -27.445312 4.175781 -28.210938 4.0625 -28.828125 C 3.957031 -29.441406 3.84375 -29.957031 3.71875 -30.375 L 3.71875 -30.5 L 10.609375 -30.5 L 10.609375 -30.375 C 10.441406 -29.882812 10.3125 -29.253906 10.21875 -28.484375 C 10.132812 -27.722656 10.046875 -26.726562 9.953125 -25.5 C 10.765625 -26.175781 11.640625 -26.847656 12.578125 -27.515625 C 13.523438 -28.191406 14.503906 -28.789062 15.515625 -29.3125 C 16.523438 -29.84375 17.554688 -30.269531 18.609375 -30.59375 C 19.660156 -30.925781 20.695312 -31.09375 21.71875 -31.09375 C 23.257812 -31.09375 24.570312 -30.820312 25.65625 -30.28125 C 26.738281 -29.75 27.625 -29.046875 28.3125 -28.171875 C 29 -27.296875 29.492188 -26.296875 29.796875 -25.171875 C 30.109375 -24.054688 30.265625 -22.921875 30.265625 -21.765625 L 30.265625 -11.640625 C 30.265625 -9.953125 30.28125 -8.476562 30.3125 -7.21875 C 30.351562 -5.957031 30.414062 -4.867188 30.5 -3.953125 C 30.582031 -3.046875 30.671875 -2.285156 30.765625 -1.671875 C 30.867188 -1.054688 30.976562 -0.539062 31.09375 -0.125 L 31.09375 0 L 24.21875 0 L 24.21875 -0.125 C 24.332031 -0.539062 24.441406 -1.054688 24.546875 -1.671875 C 24.660156 -2.285156 24.753906 -3.046875 24.828125 -3.953125 C 24.898438 -4.867188 24.957031 -5.957031 25 -7.21875 C 25.050781 -8.476562 25.078125 -9.953125 25.078125 -11.640625 Z M 25.078125 -20.078125 "/></g></g></g><g fill="#927f6d" fill-opacity="1"><g transform="translate(392.980966, 230.873946)"><g/></g></g><g fill="#927f6d" fill-opacity="1"><g transform="translate(420.417831, 230.873946)"><g><path d="M 38.25 -16 C 37.507812 -12.039062 35.9375 -8.703125 33.53125 -5.984375 C 35.5625 -3.960938 37.640625 -2.09375 39.765625 -0.375 C 41.890625 1.34375 43.976562 2.835938 46.03125 4.109375 C 48.082031 5.378906 50.0625 6.367188 51.96875 7.078125 C 53.875 7.796875 55.625 8.15625 57.21875 8.15625 C 57.851562 8.15625 58.488281 8.097656 59.125 7.984375 L 59.125 8.671875 C 58.882812 8.765625 58.570312 8.898438 58.1875 9.078125 C 57.800781 9.265625 57.320312 9.4375 56.75 9.59375 C 56.1875 9.75 55.519531 9.882812 54.75 10 C 53.988281 10.125 53.125 10.1875 52.15625 10.1875 C 50.601562 10.1875 48.925781 9.863281 47.125 9.21875 C 45.332031 8.570312 43.472656 7.675781 41.546875 6.53125 C 39.617188 5.394531 37.664062 4.039062 35.6875 2.46875 C 33.71875 0.90625 31.789062 -0.8125 29.90625 -2.6875 C 28.175781 -1.507812 26.273438 -0.601562 24.203125 0.03125 C 22.128906 0.664062 19.859375 0.984375 17.390625 0.984375 C 15.171875 0.984375 13.171875 0.703125 11.390625 0.140625 C 9.617188 -0.410156 8.113281 -1.203125 6.875 -2.234375 C 5.644531 -3.265625 4.695312 -4.515625 4.03125 -5.984375 C 3.363281 -7.453125 3.03125 -9.101562 3.03125 -10.9375 C 3.03125 -12.675781 3.359375 -14.226562 4.015625 -15.59375 C 4.671875 -16.957031 5.53125 -18.179688 6.59375 -19.265625 C 7.65625 -20.359375 8.867188 -21.351562 10.234375 -22.25 C 11.609375 -23.144531 13.015625 -24.007812 14.453125 -24.84375 C 13.867188 -26.332031 13.414062 -27.78125 13.09375 -29.1875 C 12.78125 -30.59375 12.625 -31.941406 12.625 -33.234375 C 12.625 -34.804688 12.875 -36.222656 13.375 -37.484375 C 13.882812 -38.742188 14.578125 -39.8125 15.453125 -40.6875 C 16.328125 -41.5625 17.351562 -42.234375 18.53125 -42.703125 C 19.71875 -43.179688 20.988281 -43.421875 22.34375 -43.421875 C 23.332031 -43.421875 24.265625 -43.28125 25.140625 -43 C 26.015625 -42.726562 26.773438 -42.316406 27.421875 -41.765625 C 28.066406 -41.222656 28.578125 -40.546875 28.953125 -39.734375 C 29.328125 -38.921875 29.515625 -37.976562 29.515625 -36.90625 C 29.515625 -35.550781 29.226562 -34.335938 28.65625 -33.265625 C 28.09375 -32.191406 27.347656 -31.207031 26.421875 -30.3125 C 25.503906 -29.425781 24.445312 -28.59375 23.25 -27.8125 C 22.0625 -27.039062 20.832031 -26.289062 19.5625 -25.5625 C 20.195312 -24.070312 20.957031 -22.5625 21.84375 -21.03125 C 22.726562 -19.5 23.695312 -17.972656 24.75 -16.453125 C 25.800781 -14.929688 26.929688 -13.4375 28.140625 -11.96875 C 29.359375 -10.5 30.613281 -9.070312 31.90625 -7.6875 C 32.851562 -8.976562 33.597656 -10.445312 34.140625 -12.09375 C 34.691406 -13.738281 34.96875 -15.546875 34.96875 -17.515625 C 34.96875 -19.179688 34.875 -20.570312 34.6875 -21.6875 C 34.5 -22.8125 34.304688 -23.773438 34.109375 -24.578125 L 34.109375 -24.6875 L 39.46875 -24.6875 L 39.46875 -24.578125 C 39.320312 -24.097656 39.210938 -23.5625 39.140625 -22.96875 C 39.078125 -22.382812 39.003906 -21.738281 38.921875 -21.03125 C 38.847656 -20.332031 38.757812 -19.5625 38.65625 -18.71875 C 38.5625 -17.875 38.425781 -16.96875 38.25 -16 Z M 19.625 -1.703125 C 21.257812 -1.703125 22.816406 -1.921875 24.296875 -2.359375 C 25.773438 -2.796875 27.128906 -3.429688 28.359375 -4.265625 C 27.003906 -5.691406 25.691406 -7.164062 24.421875 -8.6875 C 23.148438 -10.207031 21.957031 -11.753906 20.84375 -13.328125 C 19.738281 -14.910156 18.710938 -16.5 17.765625 -18.09375 C 16.828125 -19.695312 16.007812 -21.269531 15.3125 -22.8125 C 14.375 -22.175781 13.503906 -21.507812 12.703125 -20.8125 C 11.898438 -20.125 11.195312 -19.363281 10.59375 -18.53125 C 10 -17.695312 9.53125 -16.785156 9.1875 -15.796875 C 8.84375 -14.816406 8.671875 -13.738281 8.671875 -12.5625 C 8.671875 -11.019531 8.941406 -9.582031 9.484375 -8.25 C 10.035156 -6.914062 10.796875 -5.765625 11.765625 -4.796875 C 12.734375 -3.828125 13.890625 -3.066406 15.234375 -2.515625 C 16.578125 -1.972656 18.039062 -1.703125 19.625 -1.703125 Z M 17.390625 -34.8125 C 17.390625 -33.664062 17.519531 -32.476562 17.78125 -31.25 C 18.039062 -30.03125 18.398438 -28.769531 18.859375 -27.46875 C 19.828125 -28.082031 20.734375 -28.710938 21.578125 -29.359375 C 22.421875 -30.015625 23.15625 -30.722656 23.78125 -31.484375 C 24.40625 -32.253906 24.894531 -33.078125 25.25 -33.953125 C 25.613281 -34.828125 25.796875 -35.789062 25.796875 -36.84375 C 25.796875 -37.4375 25.71875 -37.992188 25.5625 -38.515625 C 25.414062 -39.046875 25.191406 -39.515625 24.890625 -39.921875 C 24.597656 -40.328125 24.21875 -40.644531 23.75 -40.875 C 23.28125 -41.101562 22.738281 -41.21875 22.125 -41.21875 C 20.539062 -41.21875 19.351562 -40.648438 18.5625 -39.515625 C 17.78125 -38.390625 17.390625 -36.820312 17.390625 -34.8125 Z M 17.390625 -34.8125 "/></g></g></g><g fill="#927f6d" fill-opacity="1"><g transform="translate(476.47639, 230.873946)"><g/></g></g><g fill="#927f6d" fill-opacity="1"><g transform="translate(503.913231, 230.873946)"><g><path d="M 15.375 -1.75 C 15.96875 -1.75 16.554688 -1.859375 17.140625 -2.078125 C 17.722656 -2.296875 18.285156 -2.59375 18.828125 -2.96875 C 19.378906 -3.351562 19.90625 -3.785156 20.40625 -4.265625 C 20.914062 -4.753906 21.390625 -5.269531 21.828125 -5.8125 L 22.125 -5.65625 L 20.1875 -0.859375 C 19.957031 -0.742188 19.664062 -0.597656 19.3125 -0.421875 C 18.96875 -0.253906 18.550781 -0.0976562 18.0625 0.046875 C 17.570312 0.191406 17 0.316406 16.34375 0.421875 C 15.695312 0.535156 14.925781 0.59375 14.03125 0.59375 C 11.363281 0.59375 9.289062 -0.125 7.8125 -1.5625 C 6.332031 -3 5.59375 -5.25 5.59375 -8.3125 L 5.59375 -28.171875 L 0.59375 -28 L 0.59375 -30.625 C 1.207031 -30.582031 1.941406 -30.550781 2.796875 -30.53125 C 3.648438 -30.507812 4.582031 -30.5 5.59375 -30.5 C 5.570312 -31.90625 5.535156 -33.148438 5.484375 -34.234375 C 5.441406 -35.316406 5.382812 -36.257812 5.3125 -37.0625 C 5.25 -37.875 5.164062 -38.554688 5.0625 -39.109375 C 4.96875 -39.660156 4.867188 -40.128906 4.765625 -40.515625 L 4.765625 -40.625 L 11.640625 -40.625 L 11.640625 -40.515625 C 11.523438 -40.128906 11.414062 -39.660156 11.3125 -39.109375 C 11.21875 -38.554688 11.132812 -37.878906 11.0625 -37.078125 C 11 -36.285156 10.941406 -35.347656 10.890625 -34.265625 C 10.835938 -33.179688 10.800781 -31.925781 10.78125 -30.5 C 12.03125 -30.519531 13.253906 -30.546875 14.453125 -30.578125 C 15.660156 -30.609375 16.753906 -30.644531 17.734375 -30.6875 C 18.722656 -30.738281 19.554688 -30.789062 20.234375 -30.84375 C 20.921875 -30.894531 21.375 -30.941406 21.59375 -30.984375 L 21.0625 -27.9375 C 20.050781 -27.957031 18.988281 -27.988281 17.875 -28.03125 C 16.914062 -28.070312 15.820312 -28.097656 14.59375 -28.109375 C 13.363281 -28.128906 12.09375 -28.148438 10.78125 -28.171875 L 10.78125 -7.6875 C 10.78125 -6.457031 10.914062 -5.457031 11.1875 -4.6875 C 11.457031 -3.925781 11.804688 -3.328125 12.234375 -2.890625 C 12.660156 -2.453125 13.144531 -2.148438 13.6875 -1.984375 C 14.226562 -1.828125 14.789062 -1.75 15.375 -1.75 Z M 15.375 -1.75 "/></g></g></g><g fill="#927f6d" fill-opacity="1"><g transform="translate(536.472815, 230.873946)"><g><path d="M 4.59375 -18.859375 C 4.59375 -20.546875 4.566406 -22.019531 4.515625 -23.28125 C 4.460938 -24.539062 4.398438 -25.625 4.328125 -26.53125 C 4.265625 -27.445312 4.175781 -28.210938 4.0625 -28.828125 C 3.957031 -29.441406 3.84375 -29.957031 3.71875 -30.375 L 3.71875 -30.5 L 10.609375 -30.5 L 10.609375 -30.375 C 10.441406 -29.925781 10.300781 -29.375 10.1875 -28.71875 C 10.082031 -28.0625 10.003906 -27.21875 9.953125 -26.1875 C 10.679688 -26.800781 11.441406 -27.40625 12.234375 -28 C 13.035156 -28.59375 13.851562 -29.117188 14.6875 -29.578125 C 15.519531 -30.035156 16.367188 -30.398438 17.234375 -30.671875 C 18.097656 -30.953125 18.96875 -31.09375 19.84375 -31.09375 C 20.375 -31.09375 20.835938 -31.066406 21.234375 -31.015625 C 21.628906 -30.972656 21.984375 -30.90625 22.296875 -30.8125 C 22.617188 -30.71875 22.910156 -30.613281 23.171875 -30.5 C 23.429688 -30.394531 23.679688 -30.296875 23.921875 -30.203125 L 22.453125 -24.515625 L 21.953125 -24.625 C 21.710938 -25.5 21.265625 -26.195312 20.609375 -26.71875 C 19.953125 -27.25 19.0625 -27.515625 17.9375 -27.515625 C 17.3125 -27.515625 16.660156 -27.40625 15.984375 -27.1875 C 15.316406 -26.96875 14.632812 -26.664062 13.9375 -26.28125 C 13.238281 -25.894531 12.539062 -25.445312 11.84375 -24.9375 C 11.15625 -24.4375 10.484375 -23.910156 9.828125 -23.359375 C 9.785156 -22.773438 9.765625 -22.144531 9.765625 -21.46875 C 9.765625 -20.800781 9.765625 -20.085938 9.765625 -19.328125 L 9.765625 -11.640625 C 9.765625 -9.953125 9.785156 -8.476562 9.828125 -7.21875 C 9.867188 -5.957031 9.925781 -4.867188 10 -3.953125 C 10.082031 -3.046875 10.171875 -2.285156 10.265625 -1.671875 C 10.367188 -1.054688 10.484375 -0.539062 10.609375 -0.125 L 10.609375 0 L 3.71875 0 L 3.71875 -0.125 C 3.84375 -0.539062 3.957031 -1.054688 4.0625 -1.671875 C 4.175781 -2.285156 4.265625 -3.046875 4.328125 -3.953125 C 4.398438 -4.867188 4.460938 -5.957031 4.515625 -7.21875 C 4.566406 -8.476562 4.59375 -9.953125 4.59375 -11.640625 Z M 4.59375 -18.859375 "/></g></g></g><g fill="#927f6d" fill-opacity="1"><g transform="translate(569.538684, 230.873946)"><g><path d="M 17.9375 0.53125 C 15.726562 0.53125 13.660156 0.1875 11.734375 -0.5 C 9.804688 -1.195312 8.128906 -2.210938 6.703125 -3.546875 C 5.273438 -4.890625 4.144531 -6.550781 3.3125 -8.53125 C 2.488281 -10.507812 2.078125 -12.769531 2.078125 -15.3125 C 2.078125 -17.550781 2.453125 -19.628906 3.203125 -21.546875 C 3.960938 -23.460938 5.007812 -25.125 6.34375 -26.53125 C 7.675781 -27.945312 9.226562 -29.050781 11 -29.84375 C 12.78125 -30.632812 14.703125 -31.03125 16.765625 -31.03125 C 18.816406 -31.03125 20.710938 -30.675781 22.453125 -29.96875 C 24.203125 -29.269531 25.71875 -28.25 27 -26.90625 C 28.28125 -25.570312 29.289062 -23.914062 30.03125 -21.9375 C 30.78125 -19.957031 31.1875 -17.707031 31.25 -15.1875 C 29 -15.226562 26.75 -15.257812 24.5 -15.28125 C 22.257812 -15.300781 19.929688 -15.3125 17.515625 -15.3125 C 15.785156 -15.3125 14.101562 -15.300781 12.46875 -15.28125 C 10.832031 -15.257812 9.359375 -15.226562 8.046875 -15.1875 C 8.160156 -13.125 8.476562 -11.257812 9 -9.59375 C 9.53125 -7.925781 10.253906 -6.5 11.171875 -5.3125 C 12.097656 -4.132812 13.222656 -3.226562 14.546875 -2.59375 C 15.867188 -1.957031 17.363281 -1.640625 19.03125 -1.640625 C 20.1875 -1.640625 21.273438 -1.769531 22.296875 -2.03125 C 23.316406 -2.300781 24.242188 -2.675781 25.078125 -3.15625 C 25.910156 -3.632812 26.65625 -4.195312 27.3125 -4.84375 C 27.96875 -5.488281 28.523438 -6.1875 28.984375 -6.9375 L 29.34375 -6.765625 L 27.140625 -1.453125 C 26.066406 -0.898438 24.785156 -0.429688 23.296875 -0.046875 C 21.804688 0.335938 20.019531 0.53125 17.9375 0.53125 Z M 13.96875 -17.640625 C 15.957031 -17.640625 17.945312 -17.640625 19.9375 -17.640625 C 21.9375 -17.648438 23.75 -17.6875 25.375 -17.75 C 25.195312 -19.476562 24.859375 -21.023438 24.359375 -22.390625 C 23.867188 -23.765625 23.234375 -24.925781 22.453125 -25.875 C 21.679688 -26.832031 20.769531 -27.566406 19.71875 -28.078125 C 18.664062 -28.597656 17.503906 -28.859375 16.234375 -28.859375 C 15.078125 -28.859375 14.015625 -28.601562 13.046875 -28.09375 C 12.085938 -27.59375 11.25 -26.863281 10.53125 -25.90625 C 9.820312 -24.957031 9.25 -23.789062 8.8125 -22.40625 C 8.375 -21.03125 8.117188 -19.457031 8.046875 -17.6875 C 8.929688 -17.65625 9.867188 -17.640625 10.859375 -17.640625 C 11.859375 -17.640625 12.894531 -17.640625 13.96875 -17.640625 Z M 13.96875 -17.640625 "/></g></g></g><g fill="#927f6d" fill-opacity="1"><g transform="translate(611.748062, 230.873946)"><g><path d="M 2.203125 -8.78125 C 2.203125 -10.351562 2.523438 -11.710938 3.171875 -12.859375 C 3.816406 -14.015625 4.675781 -15 5.75 -15.8125 C 6.820312 -16.625 8.039062 -17.285156 9.40625 -17.796875 C 10.78125 -18.304688 12.203125 -18.703125 13.671875 -18.984375 C 15.140625 -19.273438 16.585938 -19.472656 18.015625 -19.578125 C 19.453125 -19.691406 20.765625 -19.757812 21.953125 -19.78125 L 21.953125 -21.296875 C 21.953125 -22.609375 21.78125 -23.738281 21.4375 -24.6875 C 21.101562 -25.644531 20.628906 -26.4375 20.015625 -27.0625 C 19.398438 -27.6875 18.660156 -28.148438 17.796875 -28.453125 C 16.929688 -28.765625 15.984375 -28.921875 14.953125 -28.921875 C 14.234375 -28.921875 13.523438 -28.859375 12.828125 -28.734375 C 12.140625 -28.617188 11.421875 -28.421875 10.671875 -28.140625 C 9.929688 -27.867188 9.148438 -27.492188 8.328125 -27.015625 C 7.503906 -26.535156 6.613281 -25.929688 5.65625 -25.203125 L 5.359375 -25.375 L 7.390625 -29.578125 C 8.046875 -29.878906 8.691406 -30.125 9.328125 -30.3125 C 9.960938 -30.5 10.601562 -30.648438 11.25 -30.765625 C 11.90625 -30.890625 12.578125 -30.972656 13.265625 -31.015625 C 13.953125 -31.066406 14.671875 -31.09375 15.421875 -31.09375 C 17.515625 -31.09375 19.300781 -30.835938 20.78125 -30.328125 C 22.257812 -29.828125 23.46875 -29.132812 24.40625 -28.25 C 25.351562 -27.363281 26.046875 -26.328125 26.484375 -25.140625 C 26.921875 -23.960938 27.140625 -22.703125 27.140625 -21.359375 L 27.140625 -11.640625 C 27.140625 -9.953125 27.160156 -8.476562 27.203125 -7.21875 C 27.253906 -5.957031 27.3125 -4.867188 27.375 -3.953125 C 27.445312 -3.046875 27.535156 -2.285156 27.640625 -1.671875 C 27.753906 -1.054688 27.875 -0.539062 28 -0.125 L 28 0 L 21.421875 0 L 21.421875 -0.125 C 21.515625 -0.4375 21.585938 -0.789062 21.640625 -1.1875 C 21.691406 -1.582031 21.734375 -2.0625 21.765625 -2.625 C 21.347656 -2.257812 20.859375 -1.890625 20.296875 -1.515625 C 19.734375 -1.140625 19.085938 -0.796875 18.359375 -0.484375 C 17.640625 -0.179688 16.835938 0.0625 15.953125 0.25 C 15.066406 0.4375 14.097656 0.53125 13.046875 0.53125 C 9.585938 0.53125 6.914062 -0.273438 5.03125 -1.890625 C 3.144531 -3.503906 2.203125 -5.800781 2.203125 -8.78125 Z M 21.953125 -17.453125 C 20.140625 -17.429688 18.398438 -17.328125 16.734375 -17.140625 C 15.066406 -16.953125 13.59375 -16.5625 12.3125 -15.96875 C 11.03125 -15.375 10.007812 -14.523438 9.25 -13.421875 C 8.488281 -12.316406 8.109375 -10.851562 8.109375 -9.03125 C 8.109375 -6.6875 8.691406 -4.894531 9.859375 -3.65625 C 11.023438 -2.425781 12.644531 -1.8125 14.71875 -1.8125 C 15.664062 -1.8125 16.53125 -1.945312 17.3125 -2.21875 C 18.101562 -2.488281 18.800781 -2.828125 19.40625 -3.234375 C 20.007812 -3.640625 20.519531 -4.082031 20.9375 -4.5625 C 21.351562 -5.050781 21.671875 -5.523438 21.890625 -5.984375 C 21.929688 -6.742188 21.953125 -7.582031 21.953125 -8.5 C 21.953125 -9.425781 21.953125 -10.472656 21.953125 -11.640625 Z M 21.953125 -17.453125 "/></g></g></g><g fill="#927f6d" fill-opacity="1"><g transform="translate(652.438443, 230.873946)"><g><path d="M 15.375 -1.75 C 15.96875 -1.75 16.554688 -1.859375 17.140625 -2.078125 C 17.722656 -2.296875 18.285156 -2.59375 18.828125 -2.96875 C 19.378906 -3.351562 19.90625 -3.785156 20.40625 -4.265625 C 20.914062 -4.753906 21.390625 -5.269531 21.828125 -5.8125 L 22.125 -5.65625 L 20.1875 -0.859375 C 19.957031 -0.742188 19.664062 -0.597656 19.3125 -0.421875 C 18.96875 -0.253906 18.550781 -0.0976562 18.0625 0.046875 C 17.570312 0.191406 17 0.316406 16.34375 0.421875 C 15.695312 0.535156 14.925781 0.59375 14.03125 0.59375 C 11.363281 0.59375 9.289062 -0.125 7.8125 -1.5625 C 6.332031 -3 5.59375 -5.25 5.59375 -8.3125 L 5.59375 -28.171875 L 0.59375 -28 L 0.59375 -30.625 C 1.207031 -30.582031 1.941406 -30.550781 2.796875 -30.53125 C 3.648438 -30.507812 4.582031 -30.5 5.59375 -30.5 C 5.570312 -31.90625 5.535156 -33.148438 5.484375 -34.234375 C 5.441406 -35.316406 5.382812 -36.257812 5.3125 -37.0625 C 5.25 -37.875 5.164062 -38.554688 5.0625 -39.109375 C 4.96875 -39.660156 4.867188 -40.128906 4.765625 -40.515625 L 4.765625 -40.625 L 11.640625 -40.625 L 11.640625 -40.515625 C 11.523438 -40.128906 11.414062 -39.660156 11.3125 -39.109375 C 11.21875 -38.554688 11.132812 -37.878906 11.0625 -37.078125 C 11 -36.285156 10.941406 -35.347656 10.890625 -34.265625 C 10.835938 -33.179688 10.800781 -31.925781 10.78125 -30.5 C 12.03125 -30.519531 13.253906 -30.546875 14.453125 -30.578125 C 15.660156 -30.609375 16.753906 -30.644531 17.734375 -30.6875 C 18.722656 -30.738281 19.554688 -30.789062 20.234375 -30.84375 C 20.921875 -30.894531 21.375 -30.941406 21.59375 -30.984375 L 21.0625 -27.9375 C 20.050781 -27.957031 18.988281 -27.988281 17.875 -28.03125 C 16.914062 -28.070312 15.820312 -28.097656 14.59375 -28.109375 C 13.363281 -28.128906 12.09375 -28.148438 10.78125 -28.171875 L 10.78125 -7.6875 C 10.78125 -6.457031 10.914062 -5.457031 11.1875 -4.6875 C 11.457031 -3.925781 11.804688 -3.328125 12.234375 -2.890625 C 12.660156 -2.453125 13.144531 -2.148438 13.6875 -1.984375 C 14.226562 -1.828125 14.789062 -1.75 15.375 -1.75 Z M 15.375 -1.75 "/></g></g></g><g fill="#927f6d" fill-opacity="1"><g transform="translate(684.998026, 230.873946)"><g><path d="M 24.453125 -20.078125 C 24.453125 -21.390625 24.316406 -22.519531 24.046875 -23.46875 C 23.785156 -24.425781 23.398438 -25.21875 22.890625 -25.84375 C 22.378906 -26.46875 21.765625 -26.929688 21.046875 -27.234375 C 20.335938 -27.546875 19.546875 -27.703125 18.671875 -27.703125 C 18.078125 -27.703125 17.410156 -27.582031 16.671875 -27.34375 C 15.941406 -27.101562 15.179688 -26.78125 14.390625 -26.375 C 13.609375 -25.96875 12.828125 -25.492188 12.046875 -24.953125 C 11.265625 -24.421875 10.523438 -23.847656 9.828125 -23.234375 C 9.785156 -22.597656 9.765625 -21.914062 9.765625 -21.1875 C 9.765625 -20.46875 9.765625 -19.691406 9.765625 -18.859375 L 9.765625 -11.640625 C 9.765625 -9.953125 9.785156 -8.476562 9.828125 -7.21875 C 9.867188 -5.957031 9.925781 -4.867188 10 -3.953125 C 10.082031 -3.046875 10.171875 -2.285156 10.265625 -1.671875 C 10.367188 -1.054688 10.484375 -0.539062 10.609375 -0.125 L 10.609375 0 L 3.71875 0 L 3.71875 -0.125 C 3.84375 -0.539062 3.957031 -1.054688 4.0625 -1.671875 C 4.175781 -2.285156 4.265625 -3.046875 4.328125 -3.953125 C 4.398438 -4.867188 4.460938 -5.957031 4.515625 -7.21875 C 4.566406 -8.476562 4.59375 -9.953125 4.59375 -11.640625 L 4.59375 -18.859375 C 4.59375 -20.546875 4.566406 -22.019531 4.515625 -23.28125 C 4.460938 -24.539062 4.398438 -25.625 4.328125 -26.53125 C 4.265625 -27.445312 4.175781 -28.210938 4.0625 -28.828125 C 3.957031 -29.441406 3.84375 -29.957031 3.71875 -30.375 L 3.71875 -30.5 L 10.609375 -30.5 L 10.609375 -30.375 C 10.441406 -29.925781 10.3125 -29.347656 10.21875 -28.640625 C 10.132812 -27.929688 10.046875 -27.039062 9.953125 -25.96875 C 10.742188 -26.601562 11.59375 -27.226562 12.5 -27.84375 C 13.414062 -28.457031 14.351562 -29.003906 15.3125 -29.484375 C 16.28125 -29.960938 17.25 -30.347656 18.21875 -30.640625 C 19.195312 -30.941406 20.164062 -31.09375 21.125 -31.09375 C 22.25 -31.09375 23.25 -30.941406 24.125 -30.640625 C 25 -30.347656 25.765625 -29.941406 26.421875 -29.421875 C 27.078125 -28.910156 27.628906 -28.304688 28.078125 -27.609375 C 28.523438 -26.910156 28.863281 -26.164062 29.09375 -25.375 C 29.914062 -26.070312 30.804688 -26.757812 31.765625 -27.4375 C 32.722656 -28.125 33.710938 -28.734375 34.734375 -29.265625 C 35.765625 -29.804688 36.8125 -30.242188 37.875 -30.578125 C 38.9375 -30.921875 39.972656 -31.09375 40.984375 -31.09375 C 42.535156 -31.09375 43.847656 -30.820312 44.921875 -30.28125 C 46.003906 -29.75 46.890625 -29.046875 47.578125 -28.171875 C 48.265625 -27.296875 48.757812 -26.296875 49.0625 -25.171875 C 49.375 -24.054688 49.53125 -22.921875 49.53125 -21.765625 L 49.53125 -11.640625 C 49.53125 -9.953125 49.550781 -8.476562 49.59375 -7.21875 C 49.632812 -5.957031 49.691406 -4.867188 49.765625 -3.953125 C 49.847656 -3.046875 49.941406 -2.285156 50.046875 -1.671875 C 50.160156 -1.054688 50.273438 -0.539062 50.390625 -0.125 L 50.390625 0 L 43.484375 0 L 43.484375 -0.125 C 43.609375 -0.539062 43.722656 -1.054688 43.828125 -1.671875 C 43.941406 -2.285156 44.035156 -3.046875 44.109375 -3.953125 C 44.191406 -4.867188 44.25 -5.957031 44.28125 -7.21875 C 44.320312 -8.476562 44.34375 -9.953125 44.34375 -11.640625 L 44.34375 -20.078125 C 44.34375 -22.691406 43.816406 -24.613281 42.765625 -25.84375 C 41.710938 -27.082031 40.304688 -27.703125 38.546875 -27.703125 C 37.929688 -27.703125 37.25 -27.582031 36.5 -27.34375 C 35.757812 -27.101562 34.988281 -26.773438 34.1875 -26.359375 C 33.394531 -25.941406 32.601562 -25.457031 31.8125 -24.90625 C 31.019531 -24.363281 30.273438 -23.785156 29.578125 -23.171875 C 29.617188 -22.929688 29.640625 -22.691406 29.640625 -22.453125 C 29.640625 -22.210938 29.640625 -21.984375 29.640625 -21.765625 L 29.640625 -11.640625 C 29.640625 -9.953125 29.660156 -8.476562 29.703125 -7.21875 C 29.753906 -5.957031 29.816406 -4.867188 29.890625 -3.953125 C 29.960938 -3.046875 30.050781 -2.285156 30.15625 -1.671875 C 30.269531 -1.054688 30.382812 -0.539062 30.5 -0.125 L 30.5 0 L 23.625 0 L 23.625 -0.125 C 23.738281 -0.539062 23.84375 -1.054688 23.9375 -1.671875 C 24.039062 -2.285156 24.128906 -3.046875 24.203125 -3.953125 C 24.285156 -4.867188 24.347656 -5.957031 24.390625 -7.21875 C 24.429688 -8.476562 24.453125 -9.953125 24.453125 -11.640625 Z M 24.453125 -20.078125 "/></g></g></g><g fill="#927f6d" fill-opacity="1"><g transform="translate(748.055608, 230.873946)"><g><path d="M 17.9375 0.53125 C 15.726562 0.53125 13.660156 0.1875 11.734375 -0.5 C 9.804688 -1.195312 8.128906 -2.210938 6.703125 -3.546875 C 5.273438 -4.890625 4.144531 -6.550781 3.3125 -8.53125 C 2.488281 -10.507812 2.078125 -12.769531 2.078125 -15.3125 C 2.078125 -17.550781 2.453125 -19.628906 3.203125 -21.546875 C 3.960938 -23.460938 5.007812 -25.125 6.34375 -26.53125 C 7.675781 -27.945312 9.226562 -29.050781 11 -29.84375 C 12.78125 -30.632812 14.703125 -31.03125 16.765625 -31.03125 C 18.816406 -31.03125 20.710938 -30.675781 22.453125 -29.96875 C 24.203125 -29.269531 25.71875 -28.25 27 -26.90625 C 28.28125 -25.570312 29.289062 -23.914062 30.03125 -21.9375 C 30.78125 -19.957031 31.1875 -17.707031 31.25 -15.1875 C 29 -15.226562 26.75 -15.257812 24.5 -15.28125 C 22.257812 -15.300781 19.929688 -15.3125 17.515625 -15.3125 C 15.785156 -15.3125 14.101562 -15.300781 12.46875 -15.28125 C 10.832031 -15.257812 9.359375 -15.226562 8.046875 -15.1875 C 8.160156 -13.125 8.476562 -11.257812 9 -9.59375 C 9.53125 -7.925781 10.253906 -6.5 11.171875 -5.3125 C 12.097656 -4.132812 13.222656 -3.226562 14.546875 -2.59375 C 15.867188 -1.957031 17.363281 -1.640625 19.03125 -1.640625 C 20.1875 -1.640625 21.273438 -1.769531 22.296875 -2.03125 C 23.316406 -2.300781 24.242188 -2.675781 25.078125 -3.15625 C 25.910156 -3.632812 26.65625 -4.195312 27.3125 -4.84375 C 27.96875 -5.488281 28.523438 -6.1875 28.984375 -6.9375 L 29.34375 -6.765625 L 27.140625 -1.453125 C 26.066406 -0.898438 24.785156 -0.429688 23.296875 -0.046875 C 21.804688 0.335938 20.019531 0.53125 17.9375 0.53125 Z M 13.96875 -17.640625 C 15.957031 -17.640625 17.945312 -17.640625 19.9375 -17.640625 C 21.9375 -17.648438 23.75 -17.6875 25.375 -17.75 C 25.195312 -19.476562 24.859375 -21.023438 24.359375 -22.390625 C 23.867188 -23.765625 23.234375 -24.925781 22.453125 -25.875 C 21.679688 -26.832031 20.769531 -27.566406 19.71875 -28.078125 C 18.664062 -28.597656 17.503906 -28.859375 16.234375 -28.859375 C 15.078125 -28.859375 14.015625 -28.601562 13.046875 -28.09375 C 12.085938 -27.59375 11.25 -26.863281 10.53125 -25.90625 C 9.820312 -24.957031 9.25 -23.789062 8.8125 -22.40625 C 8.375 -21.03125 8.117188 -19.457031 8.046875 -17.6875 C 8.929688 -17.65625 9.867188 -17.640625 10.859375 -17.640625 C 11.859375 -17.640625 12.894531 -17.640625 13.96875 -17.640625 Z M 13.96875 -17.640625 "/></g></g></g><g fill="#927f6d" fill-opacity="1"><g transform="translate(790.264986, 230.873946)"><g><path d="M 25.078125 -20.078125 C 25.078125 -22.691406 24.550781 -24.613281 23.5 -25.84375 C 22.445312 -27.082031 21.035156 -27.703125 19.265625 -27.703125 C 18.628906 -27.703125 17.914062 -27.566406 17.125 -27.296875 C 16.332031 -27.023438 15.519531 -26.664062 14.6875 -26.21875 C 13.851562 -25.78125 13.019531 -25.257812 12.1875 -24.65625 C 11.351562 -24.0625 10.566406 -23.425781 9.828125 -22.75 L 9.765625 -18.859375 L 9.765625 -11.640625 C 9.765625 -9.953125 9.785156 -8.476562 9.828125 -7.21875 C 9.867188 -5.957031 9.925781 -4.867188 10 -3.953125 C 10.082031 -3.046875 10.171875 -2.285156 10.265625 -1.671875 C 10.367188 -1.054688 10.484375 -0.539062 10.609375 -0.125 L 10.609375 0 L 3.71875 0 L 3.71875 -0.125 C 3.84375 -0.539062 3.957031 -1.054688 4.0625 -1.671875 C 4.175781 -2.285156 4.265625 -3.046875 4.328125 -3.953125 C 4.398438 -4.867188 4.460938 -5.957031 4.515625 -7.21875 C 4.566406 -8.476562 4.59375 -9.953125 4.59375 -11.640625 L 4.59375 -18.859375 C 4.59375 -20.546875 4.566406 -22.019531 4.515625 -23.28125 C 4.460938 -24.539062 4.398438 -25.625 4.328125 -26.53125 C 4.265625 -27.445312 4.175781 -28.210938 4.0625 -28.828125 C 3.957031 -29.441406 3.84375 -29.957031 3.71875 -30.375 L 3.71875 -30.5 L 10.609375 -30.5 L 10.609375 -30.375 C 10.441406 -29.882812 10.3125 -29.253906 10.21875 -28.484375 C 10.132812 -27.722656 10.046875 -26.726562 9.953125 -25.5 C 10.765625 -26.175781 11.640625 -26.847656 12.578125 -27.515625 C 13.523438 -28.191406 14.503906 -28.789062 15.515625 -29.3125 C 16.523438 -29.84375 17.554688 -30.269531 18.609375 -30.59375 C 19.660156 -30.925781 20.695312 -31.09375 21.71875 -31.09375 C 23.257812 -31.09375 24.570312 -30.820312 25.65625 -30.28125 C 26.738281 -29.75 27.625 -29.046875 28.3125 -28.171875 C 29 -27.296875 29.492188 -26.296875 29.796875 -25.171875 C 30.109375 -24.054688 30.265625 -22.921875 30.265625 -21.765625 L 30.265625 -11.640625 C 30.265625 -9.953125 30.28125 -8.476562 30.3125 -7.21875 C 30.351562 -5.957031 30.414062 -4.867188 30.5 -3.953125 C 30.582031 -3.046875 30.671875 -2.285156 30.765625 -1.671875 C 30.867188 -1.054688 30.976562 -0.539062 31.09375 -0.125 L 31.09375 0 L 24.21875 0 L 24.21875 -0.125 C 24.332031 -0.539062 24.441406 -1.054688 24.546875 -1.671875 C 24.660156 -2.285156 24.753906 -3.046875 24.828125 -3.953125 C 24.898438 -4.867188 24.957031 -5.957031 25 -7.21875 C 25.050781 -8.476562 25.078125 -9.953125 25.078125 -11.640625 Z M 25.078125 -20.078125 "/></g></g></g><g fill="#927f6d" fill-opacity="1"><g transform="translate(834.052824, 230.873946)"><g><path d="M 15.375 -1.75 C 15.96875 -1.75 16.554688 -1.859375 17.140625 -2.078125 C 17.722656 -2.296875 18.285156 -2.59375 18.828125 -2.96875 C 19.378906 -3.351562 19.90625 -3.785156 20.40625 -4.265625 C 20.914062 -4.753906 21.390625 -5.269531 21.828125 -5.8125 L 22.125 -5.65625 L 20.1875 -0.859375 C 19.957031 -0.742188 19.664062 -0.597656 19.3125 -0.421875 C 18.96875 -0.253906 18.550781 -0.0976562 18.0625 0.046875 C 17.570312 0.191406 17 0.316406 16.34375 0.421875 C 15.695312 0.535156 14.925781 0.59375 14.03125 0.59375 C 11.363281 0.59375 9.289062 -0.125 7.8125 -1.5625 C 6.332031 -3 5.59375 -5.25 5.59375 -8.3125 L 5.59375 -28.171875 L 0.59375 -28 L 0.59375 -30.625 C 1.207031 -30.582031 1.941406 -30.550781 2.796875 -30.53125 C 3.648438 -30.507812 4.582031 -30.5 5.59375 -30.5 C 5.570312 -31.90625 5.535156 -33.148438 5.484375 -34.234375 C 5.441406 -35.316406 5.382812 -36.257812 5.3125 -37.0625 C 5.25 -37.875 5.164062 -38.554688 5.0625 -39.109375 C 4.96875 -39.660156 4.867188 -40.128906 4.765625 -40.515625 L 4.765625 -40.625 L 11.640625 -40.625 L 11.640625 -40.515625 C 11.523438 -40.128906 11.414062 -39.660156 11.3125 -39.109375 C 11.21875 -38.554688 11.132812 -37.878906 11.0625 -37.078125 C 11 -36.285156 10.941406 -35.347656 10.890625 -34.265625 C 10.835938 -33.179688 10.800781 -31.925781 10.78125 -30.5 C 12.03125 -30.519531 13.253906 -30.546875 14.453125 -30.578125 C 15.660156 -30.609375 16.753906 -30.644531 17.734375 -30.6875 C 18.722656 -30.738281 19.554688 -30.789062 20.234375 -30.84375 C 20.921875 -30.894531 21.375 -30.941406 21.59375 -30.984375 L 21.0625 -27.9375 C 20.050781 -27.957031 18.988281 -27.988281 17.875 -28.03125 C 16.914062 -28.070312 15.820312 -28.097656 14.59375 -28.109375 C 13.363281 -28.128906 12.09375 -28.148438 10.78125 -28.171875 L 10.78125 -7.6875 C 10.78125 -6.457031 10.914062 -5.457031 11.1875 -4.6875 C 11.457031 -3.925781 11.804688 -3.328125 12.234375 -2.890625 C 12.660156 -2.453125 13.144531 -2.148438 13.6875 -1.984375 C 14.226562 -1.828125 14.789062 -1.75 15.375 -1.75 Z M 15.375 -1.75 "/></g></g></g></svg>